ISO-10303-21;
HEADER;
FILE_DESCRIPTION(('Open CASCADE Model'),'2;1');
FILE_NAME('Open CASCADE Shape Model','2026-01-01T00:00:00',('Author'),(
    'Open CASCADE'),'Open CASCADE STEP processor 7.9','Open CASCADE 7.9'
  ,'Unknown');
FILE_SCHEMA(('AUTOMOTIVE_DESIGN { 1 0 10303 214 1 1 1 1 }'));
ENDSEC;
DATA;
#1 = APPLICATION_PROTOCOL_DEFINITION('international standard',
  'automotive_design',2000,#2);
#2 = APPLICATION_CONTEXT(
  'core data for automotive mechanical design processes');
#3 = SHAPE_DEFINITION_REPRESENTATION(#4,#10);
#4 = PRODUCT_DEFINITION_SHAPE('','',#5);
#5 = PRODUCT_DEFINITION('design','',#6,#9);
#6 = PRODUCT_DEFINITION_FORMATION('','',#7);
#7 = PRODUCT('A_Lv4_0013',
  'A_Lv4_0013','',(#8));
#8 = PRODUCT_CONTEXT('',#2,'mechanical');
#9 = PRODUCT_DEFINITION_CONTEXT('part definition',#2,'design');
#10 = ADVANCED_BREP_SHAPE_REPRESENTATION('',(#11,#15),#1077);
#11 = AXIS2_PLACEMENT_3D('',#12,#13,#14);
#12 = CARTESIAN_POINT('',(0.,0.,0.));
#13 = DIRECTION('',(0.,0.,1.));
#14 = DIRECTION('',(1.,0.,-0.));
#15 = MANIFOLD_SOLID_BREP('',#16);
#16 = CLOSED_SHELL('',(#17,#253,#329,#533,#712,#835,#861,#887,#912,#957,
    #983,#1009,#1016,#1043,#1070));
#17 = ADVANCED_FACE('',(#18),#32,.F.);
#18 = FACE_BOUND('',#19,.F.);
#19 = EDGE_LOOP('',(#20,#55,#83,#111,#139,#167,#195,#227));
#20 = ORIENTED_EDGE('',*,*,#21,.T.);
#21 = EDGE_CURVE('',#22,#24,#26,.T.);
#22 = VERTEX_POINT('',#23);
#23 = CARTESIAN_POINT('',(121.10019444918,434.58859201721,
    58.234831728925));
#24 = VERTEX_POINT('',#25);
#25 = CARTESIAN_POINT('',(123.86068140505,435.81159616097,
    59.295007483621));
#26 = SURFACE_CURVE('',#27,(#31,#43),.PCURVE_S1.);
#27 = LINE('',#28,#29);
#28 = CARTESIAN_POINT('',(121.10019444918,434.58859201721,
    58.234831728925));
#29 = VECTOR('',#30,1.);
#30 = DIRECTION('',(0.862652173708,0.382188794925,0.331304923343));
#31 = PCURVE('',#32,#37);
#32 = PLANE('',#33);
#33 = AXIS2_PLACEMENT_3D('',#34,#35,#36);
#34 = CARTESIAN_POINT('',(121.10019444918,434.58859201721,
    58.234831728925));
#35 = DIRECTION('',(-0.34613540402,-3.154198132307E-02,0.937654192919));
#36 = DIRECTION('',(-0.368810939752,0.923545791203,-0.105079314192));
#37 = DEFINITIONAL_REPRESENTATION('',(#38),#42);
#38 = LINE('',#39,#40);
#39 = CARTESIAN_POINT('',(0.,-0.));
#40 = VECTOR('',#41,1.);
#41 = DIRECTION('',(-3.469446951954E-17,-1.));
#42 = ( GEOMETRIC_REPRESENTATION_CONTEXT(2) 
PARAMETRIC_REPRESENTATION_CONTEXT() REPRESENTATION_CONTEXT('2D SPACE',''
  ) );
#43 = PCURVE('',#44,#49);
#44 = PLANE('',#45);
#45 = AXIS2_PLACEMENT_3D('',#46,#47,#48);
#46 = CARTESIAN_POINT('',(93.426281994362,432.06677535342,
    133.20133254433));
#47 = DIRECTION('',(-0.368810939752,0.923545791203,-0.105079314192));
#48 = DIRECTION('',(0.34613540402,3.154198132307E-02,-0.937654192919));
#49 = DEFINITIONAL_REPRESENTATION('',(#50),#54);
#50 = LINE('',#51,#52);
#51 = CARTESIAN_POINT('',(79.95111778049,1.06581410364E-14));
#52 = VECTOR('',#53,1.);
#53 = DIRECTION('',(5.551115123126E-17,-1.));
#54 = ( GEOMETRIC_REPRESENTATION_CONTEXT(2) 
PARAMETRIC_REPRESENTATION_CONTEXT() REPRESENTATION_CONTEXT('2D SPACE',''
  ) );
#55 = ORIENTED_EDGE('',*,*,#56,.T.);
#56 = EDGE_CURVE('',#24,#57,#59,.T.);
#57 = VERTEX_POINT('',#58);
#58 = CARTESIAN_POINT('',(98.518246607873,499.27202120008,
    52.074598918106));
#59 = SURFACE_CURVE('',#60,(#64,#71),.PCURVE_S1.);
#60 = LINE('',#61,#62);
#61 = CARTESIAN_POINT('',(123.86068140505,435.81159616097,
    59.295007483621));
#62 = VECTOR('',#63,1.);
#63 = DIRECTION('',(-0.368810939752,0.923545791203,-0.105079314192));
#64 = PCURVE('',#32,#65);
#65 = DEFINITIONAL_REPRESENTATION('',(#66),#70);
#66 = LINE('',#67,#68);
#67 = CARTESIAN_POINT('',(-1.387778780781E-16,-3.2));
#68 = VECTOR('',#69,1.);
#69 = DIRECTION('',(1.,2.775557561563E-17));
#70 = ( GEOMETRIC_REPRESENTATION_CONTEXT(2) 
PARAMETRIC_REPRESENTATION_CONTEXT() REPRESENTATION_CONTEXT('2D SPACE',''
  ) );
#71 = PCURVE('',#72,#77);
#72 = PLANE('',#73);
#73 = AXIS2_PLACEMENT_3D('',#74,#75,#76);
#74 = CARTESIAN_POINT('',(97.35250777905,466.28090034863,93.168053608568
    ));
#75 = DIRECTION('',(0.862652173708,0.382188794925,0.331304923343));
#76 = DIRECTION('',(-0.368810939752,0.923545791203,-0.105079314192));
#77 = DEFINITIONAL_REPRESENTATION('',(#78),#82);
#78 = LINE('',#79,#80);
#79 = CARTESIAN_POINT('',(-34.3569456131,-39.97555889024));
#80 = VECTOR('',#81,1.);
#81 = DIRECTION('',(1.,1.387778780781E-17));
#82 = ( GEOMETRIC_REPRESENTATION_CONTEXT(2) 
PARAMETRIC_REPRESENTATION_CONTEXT() REPRESENTATION_CONTEXT('2D SPACE',''
  ) );
#83 = ORIENTED_EDGE('',*,*,#84,.F.);
#84 = EDGE_CURVE('',#85,#57,#87,.T.);
#85 = VERTEX_POINT('',#86);
#86 = CARTESIAN_POINT('',(104.0392205196,501.7180294876,54.194950427498)
  );
#87 = SURFACE_CURVE('',#88,(#93,#100),.PCURVE_S1.);
#88 = CIRCLE('',#89,3.2);
#89 = AXIS2_PLACEMENT_3D('',#90,#91,#92);
#90 = CARTESIAN_POINT('',(101.27873356373,500.49502534384,
    53.134774672802));
#91 = DIRECTION('',(-0.34613540402,-3.154198132307E-02,0.937654192919));
#92 = DIRECTION('',(0.862652173708,0.382188794925,0.331304923343));
#93 = PCURVE('',#32,#94);
#94 = DEFINITIONAL_REPRESENTATION('',(#95),#99);
#95 = CIRCLE('',#96,3.2);
#96 = AXIS2_PLACEMENT_2D('',#97,#98);
#97 = CARTESIAN_POINT('',(68.713891226212,-6.4));
#98 = DIRECTION('',(-3.469446951954E-17,-1.));
#99 = ( GEOMETRIC_REPRESENTATION_CONTEXT(2) 
PARAMETRIC_REPRESENTATION_CONTEXT() REPRESENTATION_CONTEXT('2D SPACE',''
  ) );
#100 = PCURVE('',#101,#106);
#101 = CYLINDRICAL_SURFACE('',#102,3.2);
#102 = AXIS2_PLACEMENT_3D('',#103,#104,#105);
#103 = CARTESIAN_POINT('',(73.604821108914,497.97320868005,
    128.10127548821));
#104 = DIRECTION('',(-0.34613540402,-3.154198132307E-02,0.937654192919)
  );
#105 = DIRECTION('',(0.862652173708,0.382188794925,0.331304923343));
#106 = DEFINITIONAL_REPRESENTATION('',(#107),#110);
#107 = B_SPLINE_CURVE_WITH_KNOTS('',1,(#108,#109),.UNSPECIFIED.,.F.,.F.,
  (2,2),(0.,3.14159265359),.PIECEWISE_BEZIER_KNOTS.);
#108 = CARTESIAN_POINT('',(0.,-79.95111778049));
#109 = CARTESIAN_POINT('',(3.14159265359,-79.95111778049));
#110 = ( GEOMETRIC_REPRESENTATION_CONTEXT(2) 
PARAMETRIC_REPRESENTATION_CONTEXT() REPRESENTATION_CONTEXT('2D SPACE',''
  ) );
#111 = ORIENTED_EDGE('',*,*,#112,.T.);
#112 = EDGE_CURVE('',#85,#113,#115,.T.);
#113 = VERTEX_POINT('',#114);
#114 = CARTESIAN_POINT('',(113.98572645777,476.81081360476,
    57.028846903811));
#115 = SURFACE_CURVE('',#116,(#120,#127),.PCURVE_S1.);
#116 = LINE('',#117,#118);
#117 = CARTESIAN_POINT('',(104.0392205196,501.7180294876,54.194950427498
    ));
#118 = VECTOR('',#119,1.);
#119 = DIRECTION('',(0.368810939752,-0.923545791203,0.105079314192));
#120 = PCURVE('',#32,#121);
#121 = DEFINITIONAL_REPRESENTATION('',(#122),#126);
#122 = LINE('',#123,#124);
#123 = CARTESIAN_POINT('',(68.713891226212,-9.6));
#124 = VECTOR('',#125,1.);
#125 = DIRECTION('',(-1.,-1.595945597899E-16));
#126 = ( GEOMETRIC_REPRESENTATION_CONTEXT(2) 
PARAMETRIC_REPRESENTATION_CONTEXT() REPRESENTATION_CONTEXT('2D SPACE',''
  ) );
#127 = PCURVE('',#128,#133);
#128 = PLANE('',#129);
#129 = AXIS2_PLACEMENT_3D('',#130,#131,#132);
#130 = CARTESIAN_POINT('',(95.175517261275,488.00351321428,
    93.095149073359));
#131 = DIRECTION('',(-0.862652173708,-0.382188794925,-0.331304923343));
#132 = DIRECTION('',(0.34613540402,3.154198132307E-02,-0.937654192919));
#133 = DEFINITIONAL_REPRESENTATION('',(#134),#138);
#134 = LINE('',#135,#136);
#135 = CARTESIAN_POINT('',(39.975558890245,-13.48455924985));
#136 = VECTOR('',#137,1.);
#137 = DIRECTION('',(0.,1.));
#138 = ( GEOMETRIC_REPRESENTATION_CONTEXT(2) 
PARAMETRIC_REPRESENTATION_CONTEXT() REPRESENTATION_CONTEXT('2D SPACE',''
  ) );
#139 = ORIENTED_EDGE('',*,*,#140,.F.);
#140 = EDGE_CURVE('',#141,#113,#143,.T.);
#141 = VERTEX_POINT('',#142);
#142 = CARTESIAN_POINT('',(116.74621341363,478.03381774852,
    58.089022658507));
#143 = SURFACE_CURVE('',#144,(#148,#155),.PCURVE_S1.);
#144 = LINE('',#145,#146);
#145 = CARTESIAN_POINT('',(116.74621341363,478.03381774852,
    58.089022658507));
#146 = VECTOR('',#147,1.);
#147 = DIRECTION('',(-0.862652173708,-0.382188794925,-0.331304923343));
#148 = PCURVE('',#32,#149);
#149 = DEFINITIONAL_REPRESENTATION('',(#150),#154);
#150 = LINE('',#151,#152);
#151 = CARTESIAN_POINT('',(41.744772726504,-12.8));
#152 = VECTOR('',#153,1.);
#153 = DIRECTION('',(-7.632783294298E-17,1.));
#154 = ( GEOMETRIC_REPRESENTATION_CONTEXT(2) 
PARAMETRIC_REPRESENTATION_CONTEXT() REPRESENTATION_CONTEXT('2D SPACE',''
  ) );
#155 = PCURVE('',#156,#161);
#156 = PLANE('',#157);
#157 = AXIS2_PLACEMENT_3D('',#158,#159,#160);
#158 = CARTESIAN_POINT('',(116.74621341363,478.03381774852,
    58.089022658507));
#159 = DIRECTION('',(-0.368810939752,0.923545791203,-0.105079314192));
#160 = DIRECTION('',(-0.34613540402,-3.154198132307E-02,0.937654192919)
  );
#161 = DEFINITIONAL_REPRESENTATION('',(#162),#166);
#162 = LINE('',#163,#164);
#163 = CARTESIAN_POINT('',(0.,0.));
#164 = VECTOR('',#165,1.);
#165 = DIRECTION('',(5.551115123126E-17,-1.));
#166 = ( GEOMETRIC_REPRESENTATION_CONTEXT(2) 
PARAMETRIC_REPRESENTATION_CONTEXT() REPRESENTATION_CONTEXT('2D SPACE',''
  ) );
#167 = ORIENTED_EDGE('',*,*,#168,.F.);
#168 = EDGE_CURVE('',#169,#141,#171,.T.);
#169 = VERTEX_POINT('',#170);
#170 = CARTESIAN_POINT('',(106.79970747546,502.94103363136,
    55.255126182194));
#171 = SURFACE_CURVE('',#172,(#176,#183),.PCURVE_S1.);
#172 = LINE('',#173,#174);
#173 = CARTESIAN_POINT('',(106.79970747546,502.94103363136,
    55.255126182194));
#174 = VECTOR('',#175,1.);
#175 = DIRECTION('',(0.368810939752,-0.923545791203,0.105079314192));
#176 = PCURVE('',#32,#177);
#177 = DEFINITIONAL_REPRESENTATION('',(#178),#182);
#178 = LINE('',#179,#180);
#179 = CARTESIAN_POINT('',(68.713891226212,-12.8));
#180 = VECTOR('',#181,1.);
#181 = DIRECTION('',(-1.,-1.595945597899E-16));
#182 = ( GEOMETRIC_REPRESENTATION_CONTEXT(2) 
PARAMETRIC_REPRESENTATION_CONTEXT() REPRESENTATION_CONTEXT('2D SPACE',''
  ) );
#183 = PCURVE('',#184,#189);
#184 = PLANE('',#185);
#185 = AXIS2_PLACEMENT_3D('',#186,#187,#188);
#186 = CARTESIAN_POINT('',(97.93600421714,489.22651735805,
    94.155324828055));
#187 = DIRECTION('',(-0.862652173708,-0.382188794925,-0.331304923343));
#188 = DIRECTION('',(0.34613540402,3.154198132307E-02,-0.937654192919));
#189 = DEFINITIONAL_REPRESENTATION('',(#190),#194);
#190 = LINE('',#191,#192);
#191 = CARTESIAN_POINT('',(39.975558890245,-13.48455924985));
#192 = VECTOR('',#193,1.);
#193 = DIRECTION('',(0.,1.));
#194 = ( GEOMETRIC_REPRESENTATION_CONTEXT(2) 
PARAMETRIC_REPRESENTATION_CONTEXT() REPRESENTATION_CONTEXT('2D SPACE',''
  ) );
#195 = ORIENTED_EDGE('',*,*,#196,.F.);
#196 = EDGE_CURVE('',#197,#169,#199,.T.);
#197 = VERTEX_POINT('',#198);
#198 = CARTESIAN_POINT('',(95.757759652008,498.04901705632,
    51.01442316341));
#199 = SURFACE_CURVE('',#200,(#205,#216),.PCURVE_S1.);
#200 = CIRCLE('',#201,6.4);
#201 = AXIS2_PLACEMENT_3D('',#202,#203,#204);
#202 = CARTESIAN_POINT('',(101.27873356373,500.49502534384,
    53.134774672802));
#203 = DIRECTION('',(0.34613540402,3.154198132307E-02,-0.937654192919));
#204 = DIRECTION('',(-0.862652173708,-0.382188794925,-0.331304923343));
#205 = PCURVE('',#32,#206);
#206 = DEFINITIONAL_REPRESENTATION('',(#207),#215);
#207 = ( BOUNDED_CURVE() B_SPLINE_CURVE(2,(#208,#209,#210,#211,#212,#213
,#214),.UNSPECIFIED.,.T.,.F.) B_SPLINE_CURVE_WITH_KNOTS((1,2,2,2,2,1),(
    -2.094395102393,0.,2.094395102393,4.188790204786,6.28318530718,
8.377580409573),.UNSPECIFIED.) CURVE() GEOMETRIC_REPRESENTATION_ITEM() 
RATIONAL_B_SPLINE_CURVE((1.,0.5,1.,0.5,1.,0.5,1.)) REPRESENTATION_ITEM(
  '') );
#208 = CARTESIAN_POINT('',(68.713891226212,1.06581410364E-14));
#209 = CARTESIAN_POINT('',(79.799016394653,7.993605777301E-15));
#210 = CARTESIAN_POINT('',(74.256453810432,-9.6));
#211 = CARTESIAN_POINT('',(68.713891226212,-19.2));
#212 = CARTESIAN_POINT('',(63.171328641991,-9.6));
#213 = CARTESIAN_POINT('',(57.628766057771,3.552713678801E-15));
#214 = CARTESIAN_POINT('',(68.713891226212,1.06581410364E-14));
#215 = ( GEOMETRIC_REPRESENTATION_CONTEXT(2) 
PARAMETRIC_REPRESENTATION_CONTEXT() REPRESENTATION_CONTEXT('2D SPACE',''
  ) );
#216 = PCURVE('',#217,#222);
#217 = CYLINDRICAL_SURFACE('',#218,6.4);
#218 = AXIS2_PLACEMENT_3D('',#219,#220,#221);
#219 = CARTESIAN_POINT('',(73.604821108914,497.97320868005,
    128.10127548821));
#220 = DIRECTION('',(-0.34613540402,-3.154198132307E-02,0.937654192919)
  );
#221 = DIRECTION('',(-0.862652173708,-0.382188794925,-0.331304923343));
#222 = DEFINITIONAL_REPRESENTATION('',(#223),#226);
#223 = B_SPLINE_CURVE_WITH_KNOTS('',1,(#224,#225),.UNSPECIFIED.,.F.,.F.,
  (2,2),(0.,3.14159265359),.PIECEWISE_BEZIER_KNOTS.);
#224 = CARTESIAN_POINT('',(0.,-79.95111778049));
#225 = CARTESIAN_POINT('',(-3.14159265359,-79.95111778049));
#226 = ( GEOMETRIC_REPRESENTATION_CONTEXT(2) 
PARAMETRIC_REPRESENTATION_CONTEXT() REPRESENTATION_CONTEXT('2D SPACE',''
  ) );
#227 = ORIENTED_EDGE('',*,*,#228,.F.);
#228 = EDGE_CURVE('',#22,#197,#229,.T.);
#229 = SURFACE_CURVE('',#230,(#234,#241),.PCURVE_S1.);
#230 = LINE('',#231,#232);
#231 = CARTESIAN_POINT('',(121.10019444918,434.58859201721,
    58.234831728925));
#232 = VECTOR('',#233,1.);
#233 = DIRECTION('',(-0.368810939752,0.923545791203,-0.105079314192));
#234 = PCURVE('',#32,#235);
#235 = DEFINITIONAL_REPRESENTATION('',(#236),#240);
#236 = LINE('',#237,#238);
#237 = CARTESIAN_POINT('',(0.,-0.));
#238 = VECTOR('',#239,1.);
#239 = DIRECTION('',(1.,2.775557561563E-17));
#240 = ( GEOMETRIC_REPRESENTATION_CONTEXT(2) 
PARAMETRIC_REPRESENTATION_CONTEXT() REPRESENTATION_CONTEXT('2D SPACE',''
  ) );
#241 = PCURVE('',#242,#247);
#242 = PLANE('',#243);
#243 = AXIS2_PLACEMENT_3D('',#244,#245,#246);
#244 = CARTESIAN_POINT('',(94.592020823185,465.05789620487,
    92.107877853872));
#245 = DIRECTION('',(0.862652173708,0.382188794925,0.331304923343));
#246 = DIRECTION('',(-0.368810939752,0.923545791203,-0.105079314192));
#247 = DEFINITIONAL_REPRESENTATION('',(#248),#252);
#248 = LINE('',#249,#250);
#249 = CARTESIAN_POINT('',(-34.3569456131,-39.97555889024));
#250 = VECTOR('',#251,1.);
#251 = DIRECTION('',(1.,1.387778780781E-17));
#252 = ( GEOMETRIC_REPRESENTATION_CONTEXT(2) 
PARAMETRIC_REPRESENTATION_CONTEXT() REPRESENTATION_CONTEXT('2D SPACE',''
  ) );
#253 = ADVANCED_FACE('',(#254),#44,.F.);
#254 = FACE_BOUND('',#255,.F.);
#255 = EDGE_LOOP('',(#256,#286,#307,#308));
#256 = ORIENTED_EDGE('',*,*,#257,.T.);
#257 = EDGE_CURVE('',#258,#260,#262,.T.);
#258 = VERTEX_POINT('',#259);
#259 = CARTESIAN_POINT('',(93.426281994362,432.06677535342,
    133.20133254433));
#260 = VERTEX_POINT('',#261);
#261 = CARTESIAN_POINT('',(96.186768950227,433.28977949718,
    134.26150829903));
#262 = SURFACE_CURVE('',#263,(#267,#274),.PCURVE_S1.);
#263 = LINE('',#264,#265);
#264 = CARTESIAN_POINT('',(93.426281994362,432.06677535342,
    133.20133254433));
#265 = VECTOR('',#266,1.);
#266 = DIRECTION('',(0.862652173708,0.382188794925,0.331304923343));
#267 = PCURVE('',#44,#268);
#268 = DEFINITIONAL_REPRESENTATION('',(#269),#273);
#269 = LINE('',#270,#271);
#270 = CARTESIAN_POINT('',(0.,-0.));
#271 = VECTOR('',#272,1.);
#272 = DIRECTION('',(5.551115123126E-17,-1.));
#273 = ( GEOMETRIC_REPRESENTATION_CONTEXT(2) 
PARAMETRIC_REPRESENTATION_CONTEXT() REPRESENTATION_CONTEXT('2D SPACE',''
  ) );
#274 = PCURVE('',#275,#280);
#275 = PLANE('',#276);
#276 = AXIS2_PLACEMENT_3D('',#277,#278,#279);
#277 = CARTESIAN_POINT('',(68.083847197184,495.52720039253,
    125.98092397881));
#278 = DIRECTION('',(0.34613540402,3.154198132307E-02,-0.937654192919));
#279 = DIRECTION('',(0.368810939752,-0.923545791203,0.105079314192));
#280 = DEFINITIONAL_REPRESENTATION('',(#281),#285);
#281 = LINE('',#282,#283);
#282 = CARTESIAN_POINT('',(68.713891226212,-1.33226762955E-14));
#283 = VECTOR('',#284,1.);
#284 = DIRECTION('',(3.469446951954E-17,-1.));
#285 = ( GEOMETRIC_REPRESENTATION_CONTEXT(2) 
PARAMETRIC_REPRESENTATION_CONTEXT() REPRESENTATION_CONTEXT('2D SPACE',''
  ) );
#286 = ORIENTED_EDGE('',*,*,#287,.T.);
#287 = EDGE_CURVE('',#260,#24,#288,.T.);
#288 = SURFACE_CURVE('',#289,(#293,#300),.PCURVE_S1.);
#289 = LINE('',#290,#291);
#290 = CARTESIAN_POINT('',(96.186768950227,433.28977949718,
    134.26150829903));
#291 = VECTOR('',#292,1.);
#292 = DIRECTION('',(0.34613540402,3.154198132307E-02,-0.937654192919));
#293 = PCURVE('',#44,#294);
#294 = DEFINITIONAL_REPRESENTATION('',(#295),#299);
#295 = LINE('',#296,#297);
#296 = CARTESIAN_POINT('',(-5.995204332976E-15,-3.2));
#297 = VECTOR('',#298,1.);
#298 = DIRECTION('',(1.,-5.551115123126E-17));
#299 = ( GEOMETRIC_REPRESENTATION_CONTEXT(2) 
PARAMETRIC_REPRESENTATION_CONTEXT() REPRESENTATION_CONTEXT('2D SPACE',''
  ) );
#300 = PCURVE('',#72,#301);
#301 = DEFINITIONAL_REPRESENTATION('',(#302),#306);
#302 = LINE('',#303,#304);
#303 = CARTESIAN_POINT('',(-34.3569456131,39.975558890245));
#304 = VECTOR('',#305,1.);
#305 = DIRECTION('',(-2.775557561563E-17,-1.));
#306 = ( GEOMETRIC_REPRESENTATION_CONTEXT(2) 
PARAMETRIC_REPRESENTATION_CONTEXT() REPRESENTATION_CONTEXT('2D SPACE',''
  ) );
#307 = ORIENTED_EDGE('',*,*,#21,.F.);
#308 = ORIENTED_EDGE('',*,*,#309,.F.);
#309 = EDGE_CURVE('',#258,#22,#310,.T.);
#310 = SURFACE_CURVE('',#311,(#315,#322),.PCURVE_S1.);
#311 = LINE('',#312,#313);
#312 = CARTESIAN_POINT('',(93.426281994362,432.06677535342,
    133.20133254433));
#313 = VECTOR('',#314,1.);
#314 = DIRECTION('',(0.34613540402,3.154198132307E-02,-0.937654192919));
#315 = PCURVE('',#44,#316);
#316 = DEFINITIONAL_REPRESENTATION('',(#317),#321);
#317 = LINE('',#318,#319);
#318 = CARTESIAN_POINT('',(0.,-0.));
#319 = VECTOR('',#320,1.);
#320 = DIRECTION('',(1.,-5.551115123126E-17));
#321 = ( GEOMETRIC_REPRESENTATION_CONTEXT(2) 
PARAMETRIC_REPRESENTATION_CONTEXT() REPRESENTATION_CONTEXT('2D SPACE',''
  ) );
#322 = PCURVE('',#242,#323);
#323 = DEFINITIONAL_REPRESENTATION('',(#324),#328);
#324 = LINE('',#325,#326);
#325 = CARTESIAN_POINT('',(-34.3569456131,39.975558890245));
#326 = VECTOR('',#327,1.);
#327 = DIRECTION('',(-2.775557561563E-17,-1.));
#328 = ( GEOMETRIC_REPRESENTATION_CONTEXT(2) 
PARAMETRIC_REPRESENTATION_CONTEXT() REPRESENTATION_CONTEXT('2D SPACE',''
  ) );
#329 = ADVANCED_FACE('',(#330,#377,#411),#242,.F.);
#330 = FACE_BOUND('',#331,.F.);
#331 = EDGE_LOOP('',(#332,#354,#375,#376));
#332 = ORIENTED_EDGE('',*,*,#333,.T.);
#333 = EDGE_CURVE('',#197,#334,#336,.T.);
#334 = VERTEX_POINT('',#335);
#335 = CARTESIAN_POINT('',(68.083847197184,495.52720039253,
    125.98092397881));
#336 = SURFACE_CURVE('',#337,(#341,#348),.PCURVE_S1.);
#337 = LINE('',#338,#339);
#338 = CARTESIAN_POINT('',(95.757759652008,498.04901705632,
    51.01442316341));
#339 = VECTOR('',#340,1.);
#340 = DIRECTION('',(-0.34613540402,-3.154198132307E-02,0.937654192919)
  );
#341 = PCURVE('',#242,#342);
#342 = DEFINITIONAL_REPRESENTATION('',(#343),#347);
#343 = LINE('',#344,#345);
#344 = CARTESIAN_POINT('',(34.356945613106,-39.97555889024));
#345 = VECTOR('',#346,1.);
#346 = DIRECTION('',(2.775557561563E-17,1.));
#347 = ( GEOMETRIC_REPRESENTATION_CONTEXT(2) 
PARAMETRIC_REPRESENTATION_CONTEXT() REPRESENTATION_CONTEXT('2D SPACE',''
  ) );
#348 = PCURVE('',#217,#349);
#349 = DEFINITIONAL_REPRESENTATION('',(#350),#353);
#350 = B_SPLINE_CURVE_WITH_KNOTS('',1,(#351,#352),.UNSPECIFIED.,.F.,.F.,
  (2,2),(0.,79.95111778049),.PIECEWISE_BEZIER_KNOTS.);
#351 = CARTESIAN_POINT('',(0.,-79.95111778049));
#352 = CARTESIAN_POINT('',(0.,0.));
#353 = ( GEOMETRIC_REPRESENTATION_CONTEXT(2) 
PARAMETRIC_REPRESENTATION_CONTEXT() REPRESENTATION_CONTEXT('2D SPACE',''
  ) );
#354 = ORIENTED_EDGE('',*,*,#355,.T.);
#355 = EDGE_CURVE('',#334,#258,#356,.T.);
#356 = SURFACE_CURVE('',#357,(#361,#368),.PCURVE_S1.);
#357 = LINE('',#358,#359);
#358 = CARTESIAN_POINT('',(68.083847197184,495.52720039253,
    125.98092397881));
#359 = VECTOR('',#360,1.);
#360 = DIRECTION('',(0.368810939752,-0.923545791203,0.105079314192));
#361 = PCURVE('',#242,#362);
#362 = DEFINITIONAL_REPRESENTATION('',(#363),#367);
#363 = LINE('',#364,#365);
#364 = CARTESIAN_POINT('',(34.356945613106,39.975558890245));
#365 = VECTOR('',#366,1.);
#366 = DIRECTION('',(-1.,-1.387778780781E-17));
#367 = ( GEOMETRIC_REPRESENTATION_CONTEXT(2) 
PARAMETRIC_REPRESENTATION_CONTEXT() REPRESENTATION_CONTEXT('2D SPACE',''
  ) );
#368 = PCURVE('',#275,#369);
#369 = DEFINITIONAL_REPRESENTATION('',(#370),#374);
#370 = LINE('',#371,#372);
#371 = CARTESIAN_POINT('',(0.,-0.));
#372 = VECTOR('',#373,1.);
#373 = DIRECTION('',(1.,-2.775557561563E-17));
#374 = ( GEOMETRIC_REPRESENTATION_CONTEXT(2) 
PARAMETRIC_REPRESENTATION_CONTEXT() REPRESENTATION_CONTEXT('2D SPACE',''
  ) );
#375 = ORIENTED_EDGE('',*,*,#309,.T.);
#376 = ORIENTED_EDGE('',*,*,#228,.T.);
#377 = FACE_BOUND('',#378,.F.);
#378 = EDGE_LOOP('',(#379));
#379 = ORIENTED_EDGE('',*,*,#380,.T.);
#380 = EDGE_CURVE('',#381,#381,#383,.T.);
#381 = VERTEX_POINT('',#382);
#382 = CARTESIAN_POINT('',(103.68452440246,462.38606560983,
    71.514992626219));
#383 = SURFACE_CURVE('',#384,(#389,#400),.PCURVE_S1.);
#384 = CIRCLE('',#385,5.61);
#385 = AXIS2_PLACEMENT_3D('',#386,#387,#388);
#386 = CARTESIAN_POINT('',(105.75355377447,457.20497372118,
    72.104487578836));
#387 = DIRECTION('',(-0.862652173708,-0.382188794925,-0.331304923343));
#388 = DIRECTION('',(-0.368810939752,0.923545791203,-0.105079314192));
#389 = PCURVE('',#242,#390);
#390 = DEFINITIONAL_REPRESENTATION('',(#391),#399);
#391 = ( BOUNDED_CURVE() B_SPLINE_CURVE(2,(#392,#393,#394,#395,#396,#397
,#398),.UNSPECIFIED.,.T.,.F.) B_SPLINE_CURVE_WITH_KNOTS((1,2,2,2,2,1),(
    -2.094395102393,0.,2.094395102393,4.188790204786,6.28318530718,
8.377580409573),.UNSPECIFIED.) CURVE() GEOMETRIC_REPRESENTATION_ITEM() 
RATIONAL_B_SPLINE_CURVE((1.,0.5,1.,0.5,1.,0.5,1.)) REPRESENTATION_ITEM(
  '') );
#392 = CARTESIAN_POINT('',(-3.657086433673,-22.37196774724));
#393 = CARTESIAN_POINT('',(-3.657086433673,-32.0887727777));
#394 = CARTESIAN_POINT('',(-12.07208643367,-27.23037026247));
#395 = CARTESIAN_POINT('',(-20.48708643367,-22.37196774724));
#396 = CARTESIAN_POINT('',(-12.07208643367,-17.51356523201));
#397 = CARTESIAN_POINT('',(-3.657086433673,-12.65516271678));
#398 = CARTESIAN_POINT('',(-3.657086433673,-22.37196774724));
#399 = ( GEOMETRIC_REPRESENTATION_CONTEXT(2) 
PARAMETRIC_REPRESENTATION_CONTEXT() REPRESENTATION_CONTEXT('2D SPACE',''
  ) );
#400 = PCURVE('',#401,#406);
#401 = CYLINDRICAL_SURFACE('',#402,5.61);
#402 = AXIS2_PLACEMENT_3D('',#403,#404,#405);
#403 = CARTESIAN_POINT('',(104.89090160076,456.82278492626,
    71.773182655494));
#404 = DIRECTION('',(-0.862652173708,-0.382188794925,-0.331304923343));
#405 = DIRECTION('',(-0.368810939752,0.923545791203,-0.105079314192));
#406 = DEFINITIONAL_REPRESENTATION('',(#407),#410);
#407 = B_SPLINE_CURVE_WITH_KNOTS('',1,(#408,#409),.UNSPECIFIED.,.F.,.F.,
  (2,2),(0.,6.28318530718),.PIECEWISE_BEZIER_KNOTS.);
#408 = CARTESIAN_POINT('',(-6.28318530718,-1.));
#409 = CARTESIAN_POINT('',(0.,-1.));
#410 = ( GEOMETRIC_REPRESENTATION_CONTEXT(2) 
PARAMETRIC_REPRESENTATION_CONTEXT() REPRESENTATION_CONTEXT('2D SPACE',''
  ) );
#411 = FACE_BOUND('',#412,.F.);
#412 = EDGE_LOOP('',(#413,#443,#475,#503));
#413 = ORIENTED_EDGE('',*,*,#414,.F.);
#414 = EDGE_CURVE('',#415,#417,#419,.T.);
#415 = VERTEX_POINT('',#416);
#416 = CARTESIAN_POINT('',(98.283623974113,450.4997359829,
    99.289770006097));
#417 = VERTEX_POINT('',#418);
#418 = CARTESIAN_POINT('',(103.69799387235,443.7444897754,
    92.984585846925));
#419 = SURFACE_CURVE('',#420,(#424,#431),.PCURVE_S1.);
#420 = LINE('',#421,#422);
#421 = CARTESIAN_POINT('',(99.266757001395,449.27312868069,
    98.144884284124));
#422 = VECTOR('',#423,1.);
#423 = DIRECTION('',(0.505543407866,-0.63074194281,-0.588719342593));
#424 = PCURVE('',#242,#425);
#425 = DEFINITIONAL_REPRESENTATION('',(#426),#430);
#426 = LINE('',#427,#428);
#427 = CARTESIAN_POINT('',(-16.9364139505,4.540415538706));
#428 = VECTOR('',#429,1.);
#429 = DIRECTION('',(-0.707106781187,-0.707106781187));
#430 = ( GEOMETRIC_REPRESENTATION_CONTEXT(2) 
PARAMETRIC_REPRESENTATION_CONTEXT() REPRESENTATION_CONTEXT('2D SPACE',''
  ) );
#431 = PCURVE('',#432,#437);
#432 = PLANE('',#433);
#433 = AXIS2_PLACEMENT_3D('',#434,#435,#436);
#434 = CARTESIAN_POINT('',(102.83534169865,443.36230098048,
    92.653280923582));
#435 = DIRECTION('',(1.603402508315E-02,-0.675349040581,0.737323933848)
  );
#436 = DIRECTION('',(-0.505543407866,0.63074194281,0.588719342593));
#437 = DEFINITIONAL_REPRESENTATION('',(#438),#442);
#438 = LINE('',#439,#440);
#439 = CARTESIAN_POINT('',(8.765294536561,-1.));
#440 = VECTOR('',#441,1.);
#441 = DIRECTION('',(-1.,-1.110223024625E-16));
#442 = ( GEOMETRIC_REPRESENTATION_CONTEXT(2) 
PARAMETRIC_REPRESENTATION_CONTEXT() REPRESENTATION_CONTEXT('2D SPACE',''
  ) );
#443 = ORIENTED_EDGE('',*,*,#444,.T.);
#444 = EDGE_CURVE('',#415,#445,#447,.T.);
#445 = VERTEX_POINT('',#446);
#446 = CARTESIAN_POINT('',(98.143807275388,456.38877961677,
    92.860305302939));
#447 = SURFACE_CURVE('',#448,(#453,#464),.PCURVE_S1.);
#448 = CIRCLE('',#449,4.36);
#449 = AXIS2_PLACEMENT_3D('',#450,#451,#452);
#450 = CARTESIAN_POINT('',(98.21371562475,453.44425779983,
    96.075037654518));
#451 = DIRECTION('',(-0.862652173708,-0.382188794925,-0.331304923343));
#452 = DIRECTION('',(1.603402508315E-02,-0.675349040581,0.737323933848)
  );
#453 = PCURVE('',#242,#454);
#454 = DEFINITIONAL_REPRESENTATION('',(#455),#463);
#455 = ( BOUNDED_CURVE() B_SPLINE_CURVE(2,(#456,#457,#458,#459,#460,#461
,#462),.UNSPECIFIED.,.T.,.F.) B_SPLINE_CURVE_WITH_KNOTS((1,2,2,2,2,1),(
    -2.094395102393,0.,2.094395102393,4.188790204786,6.28318530718,
8.377580409573),.UNSPECIFIED.) CURVE() GEOMETRIC_REPRESENTATION_ITEM() 
RATIONAL_B_SPLINE_CURVE((1.,0.5,1.,0.5,1.,0.5,1.)) REPRESENTATION_ITEM(
  '') );
#456 = CARTESIAN_POINT('',(-15.56129952989,5.915529959314));
#457 = CARTESIAN_POINT('',(-10.22141189063,11.255417598582));
#458 = CARTESIAN_POINT('',(-8.266877361304,3.960995429988));
#459 = CARTESIAN_POINT('',(-6.312342831977,-3.333426738606));
#460 = CARTESIAN_POINT('',(-13.60676500057,-1.378892209279));
#461 = CARTESIAN_POINT('',(-20.90118716916,0.575642320047));
#462 = CARTESIAN_POINT('',(-15.56129952989,5.915529959314));
#463 = ( GEOMETRIC_REPRESENTATION_CONTEXT(2) 
PARAMETRIC_REPRESENTATION_CONTEXT() REPRESENTATION_CONTEXT('2D SPACE',''
  ) );
#464 = PCURVE('',#465,#470);
#465 = CYLINDRICAL_SURFACE('',#466,4.36);
#466 = AXIS2_PLACEMENT_3D('',#467,#468,#469);
#467 = CARTESIAN_POINT('',(97.351063451042,453.06206900491,
    95.743732731176));
#468 = DIRECTION('',(-0.862652173708,-0.382188794925,-0.331304923343));
#469 = DIRECTION('',(1.603402508315E-02,-0.675349040581,0.737323933848)
  );
#470 = DEFINITIONAL_REPRESENTATION('',(#471),#474);
#471 = B_SPLINE_CURVE_WITH_KNOTS('',1,(#472,#473),.UNSPECIFIED.,.F.,.F.,
  (2,2),(-8.881784197001E-16,3.14159265359),.PIECEWISE_BEZIER_KNOTS.);
#472 = CARTESIAN_POINT('',(-8.881784197001E-16,-1.));
#473 = CARTESIAN_POINT('',(3.14159265359,-1.));
#474 = ( GEOMETRIC_REPRESENTATION_CONTEXT(2) 
PARAMETRIC_REPRESENTATION_CONTEXT() REPRESENTATION_CONTEXT('2D SPACE',''
  ) );
#475 = ORIENTED_EDGE('',*,*,#476,.F.);
#476 = EDGE_CURVE('',#477,#445,#479,.T.);
#477 = VERTEX_POINT('',#478);
#478 = CARTESIAN_POINT('',(103.55817717363,449.63353340927,
    86.555121143767));
#479 = SURFACE_CURVE('',#480,(#484,#491),.PCURVE_S1.);
#480 = LINE('',#481,#482);
#481 = CARTESIAN_POINT('',(96.419755353547,458.53979541831,
    94.868011660553));
#482 = VECTOR('',#483,1.);
#483 = DIRECTION('',(-0.505543407866,0.63074194281,0.588719342593));
#484 = PCURVE('',#242,#485);
#485 = DEFINITIONAL_REPRESENTATION('',(#486),#490);
#486 = LINE('',#487,#488);
#487 = CARTESIAN_POINT('',(-6.983886005305,2.161001220013));
#488 = VECTOR('',#489,1.);
#489 = DIRECTION('',(0.707106781187,0.707106781187));
#490 = ( GEOMETRIC_REPRESENTATION_CONTEXT(2) 
PARAMETRIC_REPRESENTATION_CONTEXT() REPRESENTATION_CONTEXT('2D SPACE',''
  ) );
#491 = PCURVE('',#492,#497);
#492 = PLANE('',#493);
#493 = AXIS2_PLACEMENT_3D('',#494,#495,#496);
#494 = CARTESIAN_POINT('',(97.28115510168,456.00659082184,
    92.529000379597));
#495 = DIRECTION('',(-1.603402508315E-02,0.675349040581,-0.737323933848)
  );
#496 = DIRECTION('',(0.505543407866,-0.63074194281,-0.588719342593));
#497 = DEFINITIONAL_REPRESENTATION('',(#498),#502);
#498 = LINE('',#499,#500);
#499 = CARTESIAN_POINT('',(-3.410294536561,-1.));
#500 = VECTOR('',#501,1.);
#501 = DIRECTION('',(-1.,1.110223024625E-16));
#502 = ( GEOMETRIC_REPRESENTATION_CONTEXT(2) 
PARAMETRIC_REPRESENTATION_CONTEXT() REPRESENTATION_CONTEXT('2D SPACE',''
  ) );
#503 = ORIENTED_EDGE('',*,*,#504,.T.);
#504 = EDGE_CURVE('',#477,#417,#505,.T.);
#505 = SURFACE_CURVE('',#506,(#511,#522),.PCURVE_S1.);
#506 = CIRCLE('',#507,4.36);
#507 = AXIS2_PLACEMENT_3D('',#508,#509,#510);
#508 = CARTESIAN_POINT('',(103.62808552299,446.68901159234,
    89.769853495346));
#509 = DIRECTION('',(-0.862652173708,-0.382188794925,-0.331304923343));
#510 = DIRECTION('',(-1.603402508315E-02,0.675349040581,-0.737323933848)
  );
#511 = PCURVE('',#242,#512);
#512 = DEFINITIONAL_REPRESENTATION('',(#513),#521);
#513 = ( BOUNDED_CURVE() B_SPLINE_CURVE(2,(#514,#515,#516,#517,#518,#519
,#520),.UNSPECIFIED.,.T.,.F.) B_SPLINE_CURVE_WITH_KNOTS((1,2,2,2,2,1),(
    -2.094395102393,0.,2.094395102393,4.188790204786,6.28318530718,
8.377580409573),.UNSPECIFIED.) CURVE() GEOMETRIC_REPRESENTATION_ITEM() 
RATIONAL_B_SPLINE_CURVE((1.,0.5,1.,0.5,1.,0.5,1.)) REPRESENTATION_ITEM(
  '') );
#514 = CARTESIAN_POINT('',(-16.96844202445,-7.82355479914));
#515 = CARTESIAN_POINT('',(-22.30832966372,-13.1634424384));
#516 = CARTESIAN_POINT('',(-24.26286419305,-5.869020269814));
#517 = CARTESIAN_POINT('',(-26.21739872237,1.42540189878));
#518 = CARTESIAN_POINT('',(-18.92297655378,-0.529132630547));
#519 = CARTESIAN_POINT('',(-11.62855438519,-2.483667159873));
#520 = CARTESIAN_POINT('',(-16.96844202445,-7.82355479914));
#521 = ( GEOMETRIC_REPRESENTATION_CONTEXT(2) 
PARAMETRIC_REPRESENTATION_CONTEXT() REPRESENTATION_CONTEXT('2D SPACE',''
  ) );
#522 = PCURVE('',#523,#528);
#523 = CYLINDRICAL_SURFACE('',#524,4.36);
#524 = AXIS2_PLACEMENT_3D('',#525,#526,#527);
#525 = CARTESIAN_POINT('',(102.76543334928,446.30682279741,
    89.438548572003));
#526 = DIRECTION('',(-0.862652173708,-0.382188794925,-0.331304923343));
#527 = DIRECTION('',(-1.603402508315E-02,0.675349040581,-0.737323933848)
  );
#528 = DEFINITIONAL_REPRESENTATION('',(#529),#532);
#529 = B_SPLINE_CURVE_WITH_KNOTS('',1,(#530,#531),.UNSPECIFIED.,.F.,.F.,
  (2,2),(-8.881784197001E-16,3.14159265359),.PIECEWISE_BEZIER_KNOTS.);
#530 = CARTESIAN_POINT('',(-8.881784197001E-16,-1.));
#531 = CARTESIAN_POINT('',(3.14159265359,-1.));
#532 = ( GEOMETRIC_REPRESENTATION_CONTEXT(2) 
PARAMETRIC_REPRESENTATION_CONTEXT() REPRESENTATION_CONTEXT('2D SPACE',''
  ) );
#533 = ADVANCED_FACE('',(#534,#581,#610),#72,.T.);
#534 = FACE_BOUND('',#535,.T.);
#535 = EDGE_LOOP('',(#536,#558,#579,#580));
#536 = ORIENTED_EDGE('',*,*,#537,.T.);
#537 = EDGE_CURVE('',#57,#538,#540,.T.);
#538 = VERTEX_POINT('',#539);
#539 = CARTESIAN_POINT('',(70.844334153049,496.75020453629,
    127.04109973351));
#540 = SURFACE_CURVE('',#541,(#545,#552),.PCURVE_S1.);
#541 = LINE('',#542,#543);
#542 = CARTESIAN_POINT('',(98.518246607873,499.27202120008,
    52.074598918106));
#543 = VECTOR('',#544,1.);
#544 = DIRECTION('',(-0.34613540402,-3.154198132307E-02,0.937654192919)
  );
#545 = PCURVE('',#72,#546);
#546 = DEFINITIONAL_REPRESENTATION('',(#547),#551);
#547 = LINE('',#548,#549);
#548 = CARTESIAN_POINT('',(34.356945613106,-39.97555889024));
#549 = VECTOR('',#550,1.);
#550 = DIRECTION('',(2.775557561563E-17,1.));
#551 = ( GEOMETRIC_REPRESENTATION_CONTEXT(2) 
PARAMETRIC_REPRESENTATION_CONTEXT() REPRESENTATION_CONTEXT('2D SPACE',''
  ) );
#552 = PCURVE('',#101,#553);
#553 = DEFINITIONAL_REPRESENTATION('',(#554),#557);
#554 = B_SPLINE_CURVE_WITH_KNOTS('',1,(#555,#556),.UNSPECIFIED.,.F.,.F.,
  (2,2),(0.,79.95111778049),.PIECEWISE_BEZIER_KNOTS.);
#555 = CARTESIAN_POINT('',(3.14159265359,-79.95111778049));
#556 = CARTESIAN_POINT('',(3.14159265359,0.));
#557 = ( GEOMETRIC_REPRESENTATION_CONTEXT(2) 
PARAMETRIC_REPRESENTATION_CONTEXT() REPRESENTATION_CONTEXT('2D SPACE',''
  ) );
#558 = ORIENTED_EDGE('',*,*,#559,.T.);
#559 = EDGE_CURVE('',#538,#260,#560,.T.);
#560 = SURFACE_CURVE('',#561,(#565,#572),.PCURVE_S1.);
#561 = LINE('',#562,#563);
#562 = CARTESIAN_POINT('',(70.844334153049,496.75020453629,
    127.04109973351));
#563 = VECTOR('',#564,1.);
#564 = DIRECTION('',(0.368810939752,-0.923545791203,0.105079314192));
#565 = PCURVE('',#72,#566);
#566 = DEFINITIONAL_REPRESENTATION('',(#567),#571);
#567 = LINE('',#568,#569);
#568 = CARTESIAN_POINT('',(34.356945613106,39.975558890245));
#569 = VECTOR('',#570,1.);
#570 = DIRECTION('',(-1.,-1.387778780781E-17));
#571 = ( GEOMETRIC_REPRESENTATION_CONTEXT(2) 
PARAMETRIC_REPRESENTATION_CONTEXT() REPRESENTATION_CONTEXT('2D SPACE',''
  ) );
#572 = PCURVE('',#275,#573);
#573 = DEFINITIONAL_REPRESENTATION('',(#574),#578);
#574 = LINE('',#575,#576);
#575 = CARTESIAN_POINT('',(1.387778780781E-16,-3.2));
#576 = VECTOR('',#577,1.);
#577 = DIRECTION('',(1.,-2.775557561563E-17));
#578 = ( GEOMETRIC_REPRESENTATION_CONTEXT(2) 
PARAMETRIC_REPRESENTATION_CONTEXT() REPRESENTATION_CONTEXT('2D SPACE',''
  ) );
#579 = ORIENTED_EDGE('',*,*,#287,.T.);
#580 = ORIENTED_EDGE('',*,*,#56,.T.);
#581 = FACE_BOUND('',#582,.T.);
#582 = EDGE_LOOP('',(#583));
#583 = ORIENTED_EDGE('',*,*,#584,.T.);
#584 = EDGE_CURVE('',#585,#585,#587,.T.);
#585 = VERTEX_POINT('',#586);
#586 = CARTESIAN_POINT('',(106.44501135833,463.60906975359,
    72.575168380915));
#587 = SURFACE_CURVE('',#588,(#593,#604),.PCURVE_S1.);
#588 = CIRCLE('',#589,5.61);
#589 = AXIS2_PLACEMENT_3D('',#590,#591,#592);
#590 = CARTESIAN_POINT('',(108.51404073034,458.42797786494,
    73.164663333532));
#591 = DIRECTION('',(-0.862652173708,-0.382188794925,-0.331304923343));
#592 = DIRECTION('',(-0.368810939752,0.923545791203,-0.105079314192));
#593 = PCURVE('',#72,#594);
#594 = DEFINITIONAL_REPRESENTATION('',(#595),#603);
#595 = ( BOUNDED_CURVE() B_SPLINE_CURVE(2,(#596,#597,#598,#599,#600,#601
,#602),.UNSPECIFIED.,.T.,.F.) B_SPLINE_CURVE_WITH_KNOTS((1,2,2,2,2,1),(
    -2.094395102393,0.,2.094395102393,4.188790204786,6.28318530718,
8.377580409573),.UNSPECIFIED.) CURVE() GEOMETRIC_REPRESENTATION_ITEM() 
RATIONAL_B_SPLINE_CURVE((1.,0.5,1.,0.5,1.,0.5,1.)) REPRESENTATION_ITEM(
  '') );
#596 = CARTESIAN_POINT('',(-3.657086433673,-22.37196774724));
#597 = CARTESIAN_POINT('',(-3.657086433673,-32.0887727777));
#598 = CARTESIAN_POINT('',(-12.07208643367,-27.23037026247));
#599 = CARTESIAN_POINT('',(-20.48708643367,-22.37196774724));
#600 = CARTESIAN_POINT('',(-12.07208643367,-17.51356523201));
#601 = CARTESIAN_POINT('',(-3.657086433673,-12.65516271678));
#602 = CARTESIAN_POINT('',(-3.657086433673,-22.37196774724));
#603 = ( GEOMETRIC_REPRESENTATION_CONTEXT(2) 
PARAMETRIC_REPRESENTATION_CONTEXT() REPRESENTATION_CONTEXT('2D SPACE',''
  ) );
#604 = PCURVE('',#401,#605);
#605 = DEFINITIONAL_REPRESENTATION('',(#606),#609);
#606 = B_SPLINE_CURVE_WITH_KNOTS('',1,(#607,#608),.UNSPECIFIED.,.F.,.F.,
  (2,2),(0.,6.28318530718),.PIECEWISE_BEZIER_KNOTS.);
#607 = CARTESIAN_POINT('',(-6.28318530718,-4.2));
#608 = CARTESIAN_POINT('',(0.,-4.2));
#609 = ( GEOMETRIC_REPRESENTATION_CONTEXT(2) 
PARAMETRIC_REPRESENTATION_CONTEXT() REPRESENTATION_CONTEXT('2D SPACE',''
  ) );
#610 = FACE_BOUND('',#611,.T.);
#611 = EDGE_LOOP('',(#612,#637,#664,#687));
#612 = ORIENTED_EDGE('',*,*,#613,.F.);
#613 = EDGE_CURVE('',#614,#616,#618,.T.);
#614 = VERTEX_POINT('',#615);
#615 = CARTESIAN_POINT('',(101.04411092997,451.72274012666,
    100.34994576079));
#616 = VERTEX_POINT('',#617);
#617 = CARTESIAN_POINT('',(106.45848082822,444.96749391916,
    94.044761601621));
#618 = SURFACE_CURVE('',#619,(#623,#630),.PCURVE_S1.);
#619 = LINE('',#620,#621);
#620 = CARTESIAN_POINT('',(102.02724395726,450.49613282446,
    99.20506003882));
#621 = VECTOR('',#622,1.);
#622 = DIRECTION('',(0.505543407866,-0.63074194281,-0.588719342593));
#623 = PCURVE('',#72,#624);
#624 = DEFINITIONAL_REPRESENTATION('',(#625),#629);
#625 = LINE('',#626,#627);
#626 = CARTESIAN_POINT('',(-16.9364139505,4.540415538706));
#627 = VECTOR('',#628,1.);
#628 = DIRECTION('',(-0.707106781187,-0.707106781187));
#629 = ( GEOMETRIC_REPRESENTATION_CONTEXT(2) 
PARAMETRIC_REPRESENTATION_CONTEXT() REPRESENTATION_CONTEXT('2D SPACE',''
  ) );
#630 = PCURVE('',#432,#631);
#631 = DEFINITIONAL_REPRESENTATION('',(#632),#636);
#632 = LINE('',#633,#634);
#633 = CARTESIAN_POINT('',(8.765294536561,-4.2));
#634 = VECTOR('',#635,1.);
#635 = DIRECTION('',(-1.,-1.110223024625E-16));
#636 = ( GEOMETRIC_REPRESENTATION_CONTEXT(2) 
PARAMETRIC_REPRESENTATION_CONTEXT() REPRESENTATION_CONTEXT('2D SPACE',''
  ) );
#637 = ORIENTED_EDGE('',*,*,#638,.T.);
#638 = EDGE_CURVE('',#614,#639,#641,.T.);
#639 = VERTEX_POINT('',#640);
#640 = CARTESIAN_POINT('',(100.90429423125,457.61178376053,
    93.920481057636));
#641 = SURFACE_CURVE('',#642,(#647,#658),.PCURVE_S1.);
#642 = CIRCLE('',#643,4.36);
#643 = AXIS2_PLACEMENT_3D('',#644,#645,#646);
#644 = CARTESIAN_POINT('',(100.97420258061,454.66726194359,
    97.135213409215));
#645 = DIRECTION('',(-0.862652173708,-0.382188794925,-0.331304923343));
#646 = DIRECTION('',(1.603402508315E-02,-0.675349040581,0.737323933848)
  );
#647 = PCURVE('',#72,#648);
#648 = DEFINITIONAL_REPRESENTATION('',(#649),#657);
#649 = ( BOUNDED_CURVE() B_SPLINE_CURVE(2,(#650,#651,#652,#653,#654,#655
,#656),.UNSPECIFIED.,.T.,.F.) B_SPLINE_CURVE_WITH_KNOTS((1,2,2,2,2,1),(
    -2.094395102393,0.,2.094395102393,4.188790204786,6.28318530718,
8.377580409573),.UNSPECIFIED.) CURVE() GEOMETRIC_REPRESENTATION_ITEM() 
RATIONAL_B_SPLINE_CURVE((1.,0.5,1.,0.5,1.,0.5,1.)) REPRESENTATION_ITEM(
  '') );
#650 = CARTESIAN_POINT('',(-15.56129952989,5.915529959314));
#651 = CARTESIAN_POINT('',(-10.22141189063,11.255417598582));
#652 = CARTESIAN_POINT('',(-8.266877361304,3.960995429988));
#653 = CARTESIAN_POINT('',(-6.312342831977,-3.333426738606));
#654 = CARTESIAN_POINT('',(-13.60676500057,-1.378892209279));
#655 = CARTESIAN_POINT('',(-20.90118716916,0.575642320047));
#656 = CARTESIAN_POINT('',(-15.56129952989,5.915529959314));
#657 = ( GEOMETRIC_REPRESENTATION_CONTEXT(2) 
PARAMETRIC_REPRESENTATION_CONTEXT() REPRESENTATION_CONTEXT('2D SPACE',''
  ) );
#658 = PCURVE('',#465,#659);
#659 = DEFINITIONAL_REPRESENTATION('',(#660),#663);
#660 = B_SPLINE_CURVE_WITH_KNOTS('',1,(#661,#662),.UNSPECIFIED.,.F.,.F.,
  (2,2),(-8.881784197001E-16,3.14159265359),.PIECEWISE_BEZIER_KNOTS.);
#661 = CARTESIAN_POINT('',(-8.881784197001E-16,-4.2));
#662 = CARTESIAN_POINT('',(3.14159265359,-4.2));
#663 = ( GEOMETRIC_REPRESENTATION_CONTEXT(2) 
PARAMETRIC_REPRESENTATION_CONTEXT() REPRESENTATION_CONTEXT('2D SPACE',''
  ) );
#664 = ORIENTED_EDGE('',*,*,#665,.F.);
#665 = EDGE_CURVE('',#666,#639,#668,.T.);
#666 = VERTEX_POINT('',#667);
#667 = CARTESIAN_POINT('',(106.31866412949,450.85653755303,
    87.615296898463));
#668 = SURFACE_CURVE('',#669,(#673,#680),.PCURVE_S1.);
#669 = LINE('',#670,#671);
#670 = CARTESIAN_POINT('',(99.180242309412,459.76279956207,
    95.928187415249));
#671 = VECTOR('',#672,1.);
#672 = DIRECTION('',(-0.505543407866,0.63074194281,0.588719342593));
#673 = PCURVE('',#72,#674);
#674 = DEFINITIONAL_REPRESENTATION('',(#675),#679);
#675 = LINE('',#676,#677);
#676 = CARTESIAN_POINT('',(-6.983886005305,2.161001220013));
#677 = VECTOR('',#678,1.);
#678 = DIRECTION('',(0.707106781187,0.707106781187));
#679 = ( GEOMETRIC_REPRESENTATION_CONTEXT(2) 
PARAMETRIC_REPRESENTATION_CONTEXT() REPRESENTATION_CONTEXT('2D SPACE',''
  ) );
#680 = PCURVE('',#492,#681);
#681 = DEFINITIONAL_REPRESENTATION('',(#682),#686);
#682 = LINE('',#683,#684);
#683 = CARTESIAN_POINT('',(-3.410294536561,-4.2));
#684 = VECTOR('',#685,1.);
#685 = DIRECTION('',(-1.,1.110223024625E-16));
#686 = ( GEOMETRIC_REPRESENTATION_CONTEXT(2) 
PARAMETRIC_REPRESENTATION_CONTEXT() REPRESENTATION_CONTEXT('2D SPACE',''
  ) );
#687 = ORIENTED_EDGE('',*,*,#688,.T.);
#688 = EDGE_CURVE('',#666,#616,#689,.T.);
#689 = SURFACE_CURVE('',#690,(#695,#706),.PCURVE_S1.);
#690 = CIRCLE('',#691,4.36);
#691 = AXIS2_PLACEMENT_3D('',#692,#693,#694);
#692 = CARTESIAN_POINT('',(106.38857247886,447.9120157361,
    90.830029250042));
#693 = DIRECTION('',(-0.862652173708,-0.382188794925,-0.331304923343));
#694 = DIRECTION('',(-1.603402508315E-02,0.675349040581,-0.737323933848)
  );
#695 = PCURVE('',#72,#696);
#696 = DEFINITIONAL_REPRESENTATION('',(#697),#705);
#697 = ( BOUNDED_CURVE() B_SPLINE_CURVE(2,(#698,#699,#700,#701,#702,#703
,#704),.UNSPECIFIED.,.T.,.F.) B_SPLINE_CURVE_WITH_KNOTS((1,2,2,2,2,1),(
    -2.094395102393,0.,2.094395102393,4.188790204786,6.28318530718,
8.377580409573),.UNSPECIFIED.) CURVE() GEOMETRIC_REPRESENTATION_ITEM() 
RATIONAL_B_SPLINE_CURVE((1.,0.5,1.,0.5,1.,0.5,1.)) REPRESENTATION_ITEM(
  '') );
#698 = CARTESIAN_POINT('',(-16.96844202445,-7.82355479914));
#699 = CARTESIAN_POINT('',(-22.30832966372,-13.1634424384));
#700 = CARTESIAN_POINT('',(-24.26286419305,-5.869020269814));
#701 = CARTESIAN_POINT('',(-26.21739872237,1.42540189878));
#702 = CARTESIAN_POINT('',(-18.92297655378,-0.529132630547));
#703 = CARTESIAN_POINT('',(-11.62855438519,-2.483667159873));
#704 = CARTESIAN_POINT('',(-16.96844202445,-7.82355479914));
#705 = ( GEOMETRIC_REPRESENTATION_CONTEXT(2) 
PARAMETRIC_REPRESENTATION_CONTEXT() REPRESENTATION_CONTEXT('2D SPACE',''
  ) );
#706 = PCURVE('',#523,#707);
#707 = DEFINITIONAL_REPRESENTATION('',(#708),#711);
#708 = B_SPLINE_CURVE_WITH_KNOTS('',1,(#709,#710),.UNSPECIFIED.,.F.,.F.,
  (2,2),(-8.881784197001E-16,3.14159265359),.PIECEWISE_BEZIER_KNOTS.);
#709 = CARTESIAN_POINT('',(-8.881784197001E-16,-4.2));
#710 = CARTESIAN_POINT('',(3.14159265359,-4.2));
#711 = ( GEOMETRIC_REPRESENTATION_CONTEXT(2) 
PARAMETRIC_REPRESENTATION_CONTEXT() REPRESENTATION_CONTEXT('2D SPACE',''
  ) );
#712 = ADVANCED_FACE('',(#713),#275,.F.);
#713 = FACE_BOUND('',#714,.F.);
#714 = EDGE_LOOP('',(#715,#716,#717,#740,#763,#786,#809,#834));
#715 = ORIENTED_EDGE('',*,*,#257,.F.);
#716 = ORIENTED_EDGE('',*,*,#355,.F.);
#717 = ORIENTED_EDGE('',*,*,#718,.T.);
#718 = EDGE_CURVE('',#334,#719,#721,.T.);
#719 = VERTEX_POINT('',#720);
#720 = CARTESIAN_POINT('',(79.125795020644,500.41921696757,
    130.2216269976));
#721 = SURFACE_CURVE('',#722,(#727,#734),.PCURVE_S1.);
#722 = CIRCLE('',#723,6.4);
#723 = AXIS2_PLACEMENT_3D('',#724,#725,#726);
#724 = CARTESIAN_POINT('',(73.604821108914,497.97320868005,
    128.10127548821));
#725 = DIRECTION('',(0.34613540402,3.154198132307E-02,-0.937654192919));
#726 = DIRECTION('',(-0.862652173708,-0.382188794925,-0.331304923343));
#727 = PCURVE('',#275,#728);
#728 = DEFINITIONAL_REPRESENTATION('',(#729),#733);
#729 = CIRCLE('',#730,6.4);
#730 = AXIS2_PLACEMENT_2D('',#731,#732);
#731 = CARTESIAN_POINT('',(7.077671781985E-15,-6.4));
#732 = DIRECTION('',(-2.567390744446E-16,1.));
#733 = ( GEOMETRIC_REPRESENTATION_CONTEXT(2) 
PARAMETRIC_REPRESENTATION_CONTEXT() REPRESENTATION_CONTEXT('2D SPACE',''
  ) );
#734 = PCURVE('',#217,#735);
#735 = DEFINITIONAL_REPRESENTATION('',(#736),#739);
#736 = B_SPLINE_CURVE_WITH_KNOTS('',1,(#737,#738),.UNSPECIFIED.,.F.,.F.,
  (2,2),(0.,3.14159265359),.PIECEWISE_BEZIER_KNOTS.);
#737 = CARTESIAN_POINT('',(0.,0.));
#738 = CARTESIAN_POINT('',(-3.14159265359,0.));
#739 = ( GEOMETRIC_REPRESENTATION_CONTEXT(2) 
PARAMETRIC_REPRESENTATION_CONTEXT() REPRESENTATION_CONTEXT('2D SPACE',''
  ) );
#740 = ORIENTED_EDGE('',*,*,#741,.F.);
#741 = EDGE_CURVE('',#742,#719,#744,.T.);
#742 = VERTEX_POINT('',#743);
#743 = CARTESIAN_POINT('',(89.072300958813,475.51200108473,
    133.05552347391));
#744 = SURFACE_CURVE('',#745,(#749,#756),.PCURVE_S1.);
#745 = LINE('',#746,#747);
#746 = CARTESIAN_POINT('',(89.072300958813,475.51200108473,
    133.05552347391));
#747 = VECTOR('',#748,1.);
#748 = DIRECTION('',(-0.368810939752,0.923545791203,-0.105079314192));
#749 = PCURVE('',#275,#750);
#750 = DEFINITIONAL_REPRESENTATION('',(#751),#755);
#751 = LINE('',#752,#753);
#752 = CARTESIAN_POINT('',(26.969118499708,-12.8));
#753 = VECTOR('',#754,1.);
#754 = DIRECTION('',(-1.,1.595945597899E-16));
#755 = ( GEOMETRIC_REPRESENTATION_CONTEXT(2) 
PARAMETRIC_REPRESENTATION_CONTEXT() REPRESENTATION_CONTEXT('2D SPACE',''
  ) );
#756 = PCURVE('',#184,#757);
#757 = DEFINITIONAL_REPRESENTATION('',(#758),#762);
#758 = LINE('',#759,#760);
#759 = CARTESIAN_POINT('',(-39.97555889024,13.484559249854));
#760 = VECTOR('',#761,1.);
#761 = DIRECTION('',(0.,-1.));
#762 = ( GEOMETRIC_REPRESENTATION_CONTEXT(2) 
PARAMETRIC_REPRESENTATION_CONTEXT() REPRESENTATION_CONTEXT('2D SPACE',''
  ) );
#763 = ORIENTED_EDGE('',*,*,#764,.T.);
#764 = EDGE_CURVE('',#742,#765,#767,.T.);
#765 = VERTEX_POINT('',#766);
#766 = CARTESIAN_POINT('',(86.311814002948,474.28899694097,
    131.99534771922));
#767 = SURFACE_CURVE('',#768,(#772,#779),.PCURVE_S1.);
#768 = LINE('',#769,#770);
#769 = CARTESIAN_POINT('',(89.072300958813,475.51200108473,
    133.05552347391));
#770 = VECTOR('',#771,1.);
#771 = DIRECTION('',(-0.862652173708,-0.382188794925,-0.331304923343));
#772 = PCURVE('',#275,#773);
#773 = DEFINITIONAL_REPRESENTATION('',(#774),#778);
#774 = LINE('',#775,#776);
#775 = CARTESIAN_POINT('',(26.969118499708,-12.8));
#776 = VECTOR('',#777,1.);
#777 = DIRECTION('',(7.632783294298E-17,1.));
#778 = ( GEOMETRIC_REPRESENTATION_CONTEXT(2) 
PARAMETRIC_REPRESENTATION_CONTEXT() REPRESENTATION_CONTEXT('2D SPACE',''
  ) );
#779 = PCURVE('',#156,#780);
#780 = DEFINITIONAL_REPRESENTATION('',(#781),#785);
#781 = LINE('',#782,#783);
#782 = CARTESIAN_POINT('',(79.95111778049,-3.552713678801E-15));
#783 = VECTOR('',#784,1.);
#784 = DIRECTION('',(5.551115123126E-17,-1.));
#785 = ( GEOMETRIC_REPRESENTATION_CONTEXT(2) 
PARAMETRIC_REPRESENTATION_CONTEXT() REPRESENTATION_CONTEXT('2D SPACE',''
  ) );
#786 = ORIENTED_EDGE('',*,*,#787,.T.);
#787 = EDGE_CURVE('',#765,#788,#790,.T.);
#788 = VERTEX_POINT('',#789);
#789 = CARTESIAN_POINT('',(76.365308064779,499.19621282381,
    129.1614512429));
#790 = SURFACE_CURVE('',#791,(#795,#802),.PCURVE_S1.);
#791 = LINE('',#792,#793);
#792 = CARTESIAN_POINT('',(86.311814002948,474.28899694097,
    131.99534771922));
#793 = VECTOR('',#794,1.);
#794 = DIRECTION('',(-0.368810939752,0.923545791203,-0.105079314192));
#795 = PCURVE('',#275,#796);
#796 = DEFINITIONAL_REPRESENTATION('',(#797),#801);
#797 = LINE('',#798,#799);
#798 = CARTESIAN_POINT('',(26.969118499708,-9.6));
#799 = VECTOR('',#800,1.);
#800 = DIRECTION('',(-1.,1.595945597899E-16));
#801 = ( GEOMETRIC_REPRESENTATION_CONTEXT(2) 
PARAMETRIC_REPRESENTATION_CONTEXT() REPRESENTATION_CONTEXT('2D SPACE',''
  ) );
#802 = PCURVE('',#128,#803);
#803 = DEFINITIONAL_REPRESENTATION('',(#804),#808);
#804 = LINE('',#805,#806);
#805 = CARTESIAN_POINT('',(-39.97555889024,13.484559249854));
#806 = VECTOR('',#807,1.);
#807 = DIRECTION('',(0.,-1.));
#808 = ( GEOMETRIC_REPRESENTATION_CONTEXT(2) 
PARAMETRIC_REPRESENTATION_CONTEXT() REPRESENTATION_CONTEXT('2D SPACE',''
  ) );
#809 = ORIENTED_EDGE('',*,*,#810,.T.);
#810 = EDGE_CURVE('',#788,#538,#811,.T.);
#811 = SURFACE_CURVE('',#812,(#817,#828),.PCURVE_S1.);
#812 = CIRCLE('',#813,3.2);
#813 = AXIS2_PLACEMENT_3D('',#814,#815,#816);
#814 = CARTESIAN_POINT('',(73.604821108914,497.97320868005,
    128.10127548821));
#815 = DIRECTION('',(-0.34613540402,-3.154198132307E-02,0.937654192919)
  );
#816 = DIRECTION('',(0.862652173708,0.382188794925,0.331304923343));
#817 = PCURVE('',#275,#818);
#818 = DEFINITIONAL_REPRESENTATION('',(#819),#827);
#819 = ( BOUNDED_CURVE() B_SPLINE_CURVE(2,(#820,#821,#822,#823,#824,#825
,#826),.UNSPECIFIED.,.T.,.F.) B_SPLINE_CURVE_WITH_KNOTS((1,2,2,2,2,1),(
    -2.094395102393,0.,2.094395102393,4.188790204786,6.28318530718,
8.377580409573),.UNSPECIFIED.) CURVE() GEOMETRIC_REPRESENTATION_ITEM() 
RATIONAL_B_SPLINE_CURVE((1.,0.5,1.,0.5,1.,0.5,1.)) REPRESENTATION_ITEM(
  '') );
#820 = CARTESIAN_POINT('',(7.188694084448E-15,-9.6));
#821 = CARTESIAN_POINT('',(-5.54256258422,-9.6));
#822 = CARTESIAN_POINT('',(-2.77128129211,-4.8));
#823 = CARTESIAN_POINT('',(6.071853225606E-15,-9.769962616701E-15));
#824 = CARTESIAN_POINT('',(2.77128129211,-4.8));
#825 = CARTESIAN_POINT('',(5.54256258422,-9.6));
#826 = CARTESIAN_POINT('',(7.188694084448E-15,-9.6));
#827 = ( GEOMETRIC_REPRESENTATION_CONTEXT(2) 
PARAMETRIC_REPRESENTATION_CONTEXT() REPRESENTATION_CONTEXT('2D SPACE',''
  ) );
#828 = PCURVE('',#101,#829);
#829 = DEFINITIONAL_REPRESENTATION('',(#830),#833);
#830 = B_SPLINE_CURVE_WITH_KNOTS('',1,(#831,#832),.UNSPECIFIED.,.F.,.F.,
  (2,2),(0.,3.14159265359),.PIECEWISE_BEZIER_KNOTS.);
#831 = CARTESIAN_POINT('',(0.,0.));
#832 = CARTESIAN_POINT('',(3.14159265359,0.));
#833 = ( GEOMETRIC_REPRESENTATION_CONTEXT(2) 
PARAMETRIC_REPRESENTATION_CONTEXT() REPRESENTATION_CONTEXT('2D SPACE',''
  ) );
#834 = ORIENTED_EDGE('',*,*,#559,.T.);
#835 = ADVANCED_FACE('',(#836),#217,.T.);
#836 = FACE_BOUND('',#837,.F.);
#837 = EDGE_LOOP('',(#838,#839,#840,#860));
#838 = ORIENTED_EDGE('',*,*,#333,.F.);
#839 = ORIENTED_EDGE('',*,*,#196,.T.);
#840 = ORIENTED_EDGE('',*,*,#841,.F.);
#841 = EDGE_CURVE('',#719,#169,#842,.T.);
#842 = SURFACE_CURVE('',#843,(#847,#853),.PCURVE_S1.);
#843 = LINE('',#844,#845);
#844 = CARTESIAN_POINT('',(79.125795020644,500.41921696757,
    130.2216269976));
#845 = VECTOR('',#846,1.);
#846 = DIRECTION('',(0.34613540402,3.154198132307E-02,-0.937654192919));
#847 = PCURVE('',#217,#848);
#848 = DEFINITIONAL_REPRESENTATION('',(#849),#852);
#849 = B_SPLINE_CURVE_WITH_KNOTS('',1,(#850,#851),.UNSPECIFIED.,.F.,.F.,
  (2,2),(0.,79.95111778049),.PIECEWISE_BEZIER_KNOTS.);
#850 = CARTESIAN_POINT('',(-3.14159265359,0.));
#851 = CARTESIAN_POINT('',(-3.14159265359,-79.95111778049));
#852 = ( GEOMETRIC_REPRESENTATION_CONTEXT(2) 
PARAMETRIC_REPRESENTATION_CONTEXT() REPRESENTATION_CONTEXT('2D SPACE',''
  ) );
#853 = PCURVE('',#184,#854);
#854 = DEFINITIONAL_REPRESENTATION('',(#855),#859);
#855 = LINE('',#856,#857);
#856 = CARTESIAN_POINT('',(-39.97555889024,-13.48455924985));
#857 = VECTOR('',#858,1.);
#858 = DIRECTION('',(1.,1.387778780781E-17));
#859 = ( GEOMETRIC_REPRESENTATION_CONTEXT(2) 
PARAMETRIC_REPRESENTATION_CONTEXT() REPRESENTATION_CONTEXT('2D SPACE',''
  ) );
#860 = ORIENTED_EDGE('',*,*,#718,.F.);
#861 = ADVANCED_FACE('',(#862),#101,.F.);
#862 = FACE_BOUND('',#863,.F.);
#863 = EDGE_LOOP('',(#864,#884,#885,#886));
#864 = ORIENTED_EDGE('',*,*,#865,.T.);
#865 = EDGE_CURVE('',#788,#85,#866,.T.);
#866 = SURFACE_CURVE('',#867,(#871,#877),.PCURVE_S1.);
#867 = LINE('',#868,#869);
#868 = CARTESIAN_POINT('',(76.365308064779,499.19621282381,
    129.1614512429));
#869 = VECTOR('',#870,1.);
#870 = DIRECTION('',(0.34613540402,3.154198132307E-02,-0.937654192919));
#871 = PCURVE('',#101,#872);
#872 = DEFINITIONAL_REPRESENTATION('',(#873),#876);
#873 = B_SPLINE_CURVE_WITH_KNOTS('',1,(#874,#875),.UNSPECIFIED.,.F.,.F.,
  (2,2),(0.,79.95111778049),.PIECEWISE_BEZIER_KNOTS.);
#874 = CARTESIAN_POINT('',(0.,0.));
#875 = CARTESIAN_POINT('',(0.,-79.95111778049));
#876 = ( GEOMETRIC_REPRESENTATION_CONTEXT(2) 
PARAMETRIC_REPRESENTATION_CONTEXT() REPRESENTATION_CONTEXT('2D SPACE',''
  ) );
#877 = PCURVE('',#128,#878);
#878 = DEFINITIONAL_REPRESENTATION('',(#879),#883);
#879 = LINE('',#880,#881);
#880 = CARTESIAN_POINT('',(-39.97555889024,-13.48455924985));
#881 = VECTOR('',#882,1.);
#882 = DIRECTION('',(1.,1.387778780781E-17));
#883 = ( GEOMETRIC_REPRESENTATION_CONTEXT(2) 
PARAMETRIC_REPRESENTATION_CONTEXT() REPRESENTATION_CONTEXT('2D SPACE',''
  ) );
#884 = ORIENTED_EDGE('',*,*,#84,.T.);
#885 = ORIENTED_EDGE('',*,*,#537,.T.);
#886 = ORIENTED_EDGE('',*,*,#810,.F.);
#887 = ADVANCED_FACE('',(#888),#401,.F.);
#888 = FACE_BOUND('',#889,.T.);
#889 = EDGE_LOOP('',(#890,#891,#910,#911));
#890 = ORIENTED_EDGE('',*,*,#380,.T.);
#891 = ORIENTED_EDGE('',*,*,#892,.T.);
#892 = EDGE_CURVE('',#381,#585,#893,.T.);
#893 = SEAM_CURVE('',#894,(#898,#904),.PCURVE_S1.);
#894 = LINE('',#895,#896);
#895 = CARTESIAN_POINT('',(102.82187222875,462.00387681491,
    71.183687702877));
#896 = VECTOR('',#897,1.);
#897 = DIRECTION('',(0.862652173708,0.382188794925,0.331304923343));
#898 = PCURVE('',#401,#899);
#899 = DEFINITIONAL_REPRESENTATION('',(#900),#903);
#900 = B_SPLINE_CURVE_WITH_KNOTS('',1,(#901,#902),.UNSPECIFIED.,.F.,.F.,
  (2,2),(1.,4.2),.PIECEWISE_BEZIER_KNOTS.);
#901 = CARTESIAN_POINT('',(-6.28318530718,-1.));
#902 = CARTESIAN_POINT('',(-6.28318530718,-4.2));
#903 = ( GEOMETRIC_REPRESENTATION_CONTEXT(2) 
PARAMETRIC_REPRESENTATION_CONTEXT() REPRESENTATION_CONTEXT('2D SPACE',''
  ) );
#904 = PCURVE('',#401,#905);
#905 = DEFINITIONAL_REPRESENTATION('',(#906),#909);
#906 = B_SPLINE_CURVE_WITH_KNOTS('',1,(#907,#908),.UNSPECIFIED.,.F.,.F.,
  (2,2),(1.,4.2),.PIECEWISE_BEZIER_KNOTS.);
#907 = CARTESIAN_POINT('',(0.,-1.));
#908 = CARTESIAN_POINT('',(0.,-4.2));
#909 = ( GEOMETRIC_REPRESENTATION_CONTEXT(2) 
PARAMETRIC_REPRESENTATION_CONTEXT() REPRESENTATION_CONTEXT('2D SPACE',''
  ) );
#910 = ORIENTED_EDGE('',*,*,#584,.F.);
#911 = ORIENTED_EDGE('',*,*,#892,.F.);
#912 = ADVANCED_FACE('',(#913),#432,.F.);
#913 = FACE_BOUND('',#914,.F.);
#914 = EDGE_LOOP('',(#915,#916,#936,#937));
#915 = ORIENTED_EDGE('',*,*,#414,.T.);
#916 = ORIENTED_EDGE('',*,*,#917,.T.);
#917 = EDGE_CURVE('',#417,#616,#918,.T.);
#918 = SURFACE_CURVE('',#919,(#923,#930),.PCURVE_S1.);
#919 = LINE('',#920,#921);
#920 = CARTESIAN_POINT('',(102.83534169865,443.36230098048,
    92.653280923582));
#921 = VECTOR('',#922,1.);
#922 = DIRECTION('',(0.862652173708,0.382188794925,0.331304923343));
#923 = PCURVE('',#432,#924);
#924 = DEFINITIONAL_REPRESENTATION('',(#925),#929);
#925 = LINE('',#926,#927);
#926 = CARTESIAN_POINT('',(0.,-0.));
#927 = VECTOR('',#928,1.);
#928 = DIRECTION('',(-8.326672684689E-17,-1.));
#929 = ( GEOMETRIC_REPRESENTATION_CONTEXT(2) 
PARAMETRIC_REPRESENTATION_CONTEXT() REPRESENTATION_CONTEXT('2D SPACE',''
  ) );
#930 = PCURVE('',#523,#931);
#931 = DEFINITIONAL_REPRESENTATION('',(#932),#935);
#932 = B_SPLINE_CURVE_WITH_KNOTS('',1,(#933,#934),.UNSPECIFIED.,.F.,.F.,
  (2,2),(1.,4.2),.PIECEWISE_BEZIER_KNOTS.);
#933 = CARTESIAN_POINT('',(3.14159265359,-1.));
#934 = CARTESIAN_POINT('',(3.14159265359,-4.2));
#935 = ( GEOMETRIC_REPRESENTATION_CONTEXT(2) 
PARAMETRIC_REPRESENTATION_CONTEXT() REPRESENTATION_CONTEXT('2D SPACE',''
  ) );
#936 = ORIENTED_EDGE('',*,*,#613,.F.);
#937 = ORIENTED_EDGE('',*,*,#938,.F.);
#938 = EDGE_CURVE('',#415,#614,#939,.T.);
#939 = SURFACE_CURVE('',#940,(#944,#951),.PCURVE_S1.);
#940 = LINE('',#941,#942);
#941 = CARTESIAN_POINT('',(97.420971800405,450.11754718797,
    98.958465082755));
#942 = VECTOR('',#943,1.);
#943 = DIRECTION('',(0.862652173708,0.382188794925,0.331304923343));
#944 = PCURVE('',#432,#945);
#945 = DEFINITIONAL_REPRESENTATION('',(#946),#950);
#946 = LINE('',#947,#948);
#947 = CARTESIAN_POINT('',(10.71,-1.68753899743E-14));
#948 = VECTOR('',#949,1.);
#949 = DIRECTION('',(-8.326672684689E-17,-1.));
#950 = ( GEOMETRIC_REPRESENTATION_CONTEXT(2) 
PARAMETRIC_REPRESENTATION_CONTEXT() REPRESENTATION_CONTEXT('2D SPACE',''
  ) );
#951 = PCURVE('',#465,#952);
#952 = DEFINITIONAL_REPRESENTATION('',(#953),#956);
#953 = B_SPLINE_CURVE_WITH_KNOTS('',1,(#954,#955),.UNSPECIFIED.,.F.,.F.,
  (2,2),(1.,4.2),.PIECEWISE_BEZIER_KNOTS.);
#954 = CARTESIAN_POINT('',(0.,-1.));
#955 = CARTESIAN_POINT('',(0.,-4.2));
#956 = ( GEOMETRIC_REPRESENTATION_CONTEXT(2) 
PARAMETRIC_REPRESENTATION_CONTEXT() REPRESENTATION_CONTEXT('2D SPACE',''
  ) );
#957 = ADVANCED_FACE('',(#958),#465,.F.);
#958 = FACE_BOUND('',#959,.F.);
#959 = EDGE_LOOP('',(#960,#961,#962,#963));
#960 = ORIENTED_EDGE('',*,*,#444,.F.);
#961 = ORIENTED_EDGE('',*,*,#938,.T.);
#962 = ORIENTED_EDGE('',*,*,#638,.T.);
#963 = ORIENTED_EDGE('',*,*,#964,.F.);
#964 = EDGE_CURVE('',#445,#639,#965,.T.);
#965 = SURFACE_CURVE('',#966,(#970,#976),.PCURVE_S1.);
#966 = LINE('',#967,#968);
#967 = CARTESIAN_POINT('',(97.28115510168,456.00659082184,
    92.529000379597));
#968 = VECTOR('',#969,1.);
#969 = DIRECTION('',(0.862652173708,0.382188794925,0.331304923343));
#970 = PCURVE('',#465,#971);
#971 = DEFINITIONAL_REPRESENTATION('',(#972),#975);
#972 = B_SPLINE_CURVE_WITH_KNOTS('',1,(#973,#974),.UNSPECIFIED.,.F.,.F.,
  (2,2),(1.,4.2),.PIECEWISE_BEZIER_KNOTS.);
#973 = CARTESIAN_POINT('',(3.14159265359,-1.));
#974 = CARTESIAN_POINT('',(3.14159265359,-4.2));
#975 = ( GEOMETRIC_REPRESENTATION_CONTEXT(2) 
PARAMETRIC_REPRESENTATION_CONTEXT() REPRESENTATION_CONTEXT('2D SPACE',''
  ) );
#976 = PCURVE('',#492,#977);
#977 = DEFINITIONAL_REPRESENTATION('',(#978),#982);
#978 = LINE('',#979,#980);
#979 = CARTESIAN_POINT('',(0.,-0.));
#980 = VECTOR('',#981,1.);
#981 = DIRECTION('',(8.326672684689E-17,-1.));
#982 = ( GEOMETRIC_REPRESENTATION_CONTEXT(2) 
PARAMETRIC_REPRESENTATION_CONTEXT() REPRESENTATION_CONTEXT('2D SPACE',''
  ) );
#983 = ADVANCED_FACE('',(#984),#523,.F.);
#984 = FACE_BOUND('',#985,.F.);
#985 = EDGE_LOOP('',(#986,#987,#1007,#1008));
#986 = ORIENTED_EDGE('',*,*,#504,.F.);
#987 = ORIENTED_EDGE('',*,*,#988,.T.);
#988 = EDGE_CURVE('',#477,#666,#989,.T.);
#989 = SURFACE_CURVE('',#990,(#994,#1000),.PCURVE_S1.);
#990 = LINE('',#991,#992);
#991 = CARTESIAN_POINT('',(102.69552499992,449.25134461435,
    86.223816220424));
#992 = VECTOR('',#993,1.);
#993 = DIRECTION('',(0.862652173708,0.382188794925,0.331304923343));
#994 = PCURVE('',#523,#995);
#995 = DEFINITIONAL_REPRESENTATION('',(#996),#999);
#996 = B_SPLINE_CURVE_WITH_KNOTS('',1,(#997,#998),.UNSPECIFIED.,.F.,.F.,
  (2,2),(1.,4.2),.PIECEWISE_BEZIER_KNOTS.);
#997 = CARTESIAN_POINT('',(0.,-1.));
#998 = CARTESIAN_POINT('',(0.,-4.2));
#999 = ( GEOMETRIC_REPRESENTATION_CONTEXT(2) 
PARAMETRIC_REPRESENTATION_CONTEXT() REPRESENTATION_CONTEXT('2D SPACE',''
  ) );
#1000 = PCURVE('',#492,#1001);
#1001 = DEFINITIONAL_REPRESENTATION('',(#1002),#1006);
#1002 = LINE('',#1003,#1004);
#1003 = CARTESIAN_POINT('',(10.71,8.881784197001E-16));
#1004 = VECTOR('',#1005,1.);
#1005 = DIRECTION('',(8.326672684689E-17,-1.));
#1006 = ( GEOMETRIC_REPRESENTATION_CONTEXT(2) 
PARAMETRIC_REPRESENTATION_CONTEXT() REPRESENTATION_CONTEXT('2D SPACE',''
  ) );
#1007 = ORIENTED_EDGE('',*,*,#688,.T.);
#1008 = ORIENTED_EDGE('',*,*,#917,.F.);
#1009 = ADVANCED_FACE('',(#1010),#492,.F.);
#1010 = FACE_BOUND('',#1011,.F.);
#1011 = EDGE_LOOP('',(#1012,#1013,#1014,#1015));
#1012 = ORIENTED_EDGE('',*,*,#476,.T.);
#1013 = ORIENTED_EDGE('',*,*,#964,.T.);
#1014 = ORIENTED_EDGE('',*,*,#665,.F.);
#1015 = ORIENTED_EDGE('',*,*,#988,.F.);
#1016 = ADVANCED_FACE('',(#1017),#184,.F.);
#1017 = FACE_BOUND('',#1018,.F.);
#1018 = EDGE_LOOP('',(#1019,#1020,#1041,#1042));
#1019 = ORIENTED_EDGE('',*,*,#168,.T.);
#1020 = ORIENTED_EDGE('',*,*,#1021,.T.);
#1021 = EDGE_CURVE('',#141,#742,#1022,.T.);
#1022 = SURFACE_CURVE('',#1023,(#1027,#1034),.PCURVE_S1.);
#1023 = LINE('',#1024,#1025);
#1024 = CARTESIAN_POINT('',(116.74621341363,478.03381774852,
    58.089022658507));
#1025 = VECTOR('',#1026,1.);
#1026 = DIRECTION('',(-0.34613540402,-3.154198132307E-02,0.937654192919)
  );
#1027 = PCURVE('',#184,#1028);
#1028 = DEFINITIONAL_REPRESENTATION('',(#1029),#1033);
#1029 = LINE('',#1030,#1031);
#1030 = CARTESIAN_POINT('',(39.975558890245,13.484559249854));
#1031 = VECTOR('',#1032,1.);
#1032 = DIRECTION('',(-1.,-1.387778780781E-17));
#1033 = ( GEOMETRIC_REPRESENTATION_CONTEXT(2) 
PARAMETRIC_REPRESENTATION_CONTEXT() REPRESENTATION_CONTEXT('2D SPACE',''
  ) );
#1034 = PCURVE('',#156,#1035);
#1035 = DEFINITIONAL_REPRESENTATION('',(#1036),#1040);
#1036 = LINE('',#1037,#1038);
#1037 = CARTESIAN_POINT('',(0.,0.));
#1038 = VECTOR('',#1039,1.);
#1039 = DIRECTION('',(1.,-5.551115123126E-17));
#1040 = ( GEOMETRIC_REPRESENTATION_CONTEXT(2) 
PARAMETRIC_REPRESENTATION_CONTEXT() REPRESENTATION_CONTEXT('2D SPACE',''
  ) );
#1041 = ORIENTED_EDGE('',*,*,#741,.T.);
#1042 = ORIENTED_EDGE('',*,*,#841,.T.);
#1043 = ADVANCED_FACE('',(#1044),#156,.F.);
#1044 = FACE_BOUND('',#1045,.F.);
#1045 = EDGE_LOOP('',(#1046,#1047,#1068,#1069));
#1046 = ORIENTED_EDGE('',*,*,#140,.T.);
#1047 = ORIENTED_EDGE('',*,*,#1048,.T.);
#1048 = EDGE_CURVE('',#113,#765,#1049,.T.);
#1049 = SURFACE_CURVE('',#1050,(#1054,#1061),.PCURVE_S1.);
#1050 = LINE('',#1051,#1052);
#1051 = CARTESIAN_POINT('',(113.98572645777,476.81081360476,
    57.028846903811));
#1052 = VECTOR('',#1053,1.);
#1053 = DIRECTION('',(-0.34613540402,-3.154198132307E-02,0.937654192919)
  );
#1054 = PCURVE('',#156,#1055);
#1055 = DEFINITIONAL_REPRESENTATION('',(#1056),#1060);
#1056 = LINE('',#1057,#1058);
#1057 = CARTESIAN_POINT('',(2.442490654175E-15,-3.2));
#1058 = VECTOR('',#1059,1.);
#1059 = DIRECTION('',(1.,-5.551115123126E-17));
#1060 = ( GEOMETRIC_REPRESENTATION_CONTEXT(2) 
PARAMETRIC_REPRESENTATION_CONTEXT() REPRESENTATION_CONTEXT('2D SPACE',''
  ) );
#1061 = PCURVE('',#128,#1062);
#1062 = DEFINITIONAL_REPRESENTATION('',(#1063),#1067);
#1063 = LINE('',#1064,#1065);
#1064 = CARTESIAN_POINT('',(39.975558890245,13.484559249854));
#1065 = VECTOR('',#1066,1.);
#1066 = DIRECTION('',(-1.,-1.387778780781E-17));
#1067 = ( GEOMETRIC_REPRESENTATION_CONTEXT(2) 
PARAMETRIC_REPRESENTATION_CONTEXT() REPRESENTATION_CONTEXT('2D SPACE',''
  ) );
#1068 = ORIENTED_EDGE('',*,*,#764,.F.);
#1069 = ORIENTED_EDGE('',*,*,#1021,.F.);
#1070 = ADVANCED_FACE('',(#1071),#128,.T.);
#1071 = FACE_BOUND('',#1072,.T.);
#1072 = EDGE_LOOP('',(#1073,#1074,#1075,#1076));
#1073 = ORIENTED_EDGE('',*,*,#112,.T.);
#1074 = ORIENTED_EDGE('',*,*,#1048,.T.);
#1075 = ORIENTED_EDGE('',*,*,#787,.T.);
#1076 = ORIENTED_EDGE('',*,*,#865,.T.);
#1077 = ( GEOMETRIC_REPRESENTATION_CONTEXT(3) 
GLOBAL_UNCERTAINTY_ASSIGNED_CONTEXT((#1081)) 
GLOBAL_UNIT_ASSIGNED_CONTEXT((#1078,#1079,#1080)) REPRESENTATION_CONTEXT
('Context #1','3D Context with UNIT and UNCERTAINTY') );
#1078 = ( LENGTH_UNIT() NAMED_UNIT(*) SI_UNIT(.MILLI.,.METRE.) );
#1079 = ( NAMED_UNIT(*) PLANE_ANGLE_UNIT() SI_UNIT($,.RADIAN.) );
#1080 = ( NAMED_UNIT(*) SI_UNIT($,.STERADIAN.) SOLID_ANGLE_UNIT() );
#1081 = UNCERTAINTY_MEASURE_WITH_UNIT(LENGTH_MEASURE(1.E-07),#1078,
  'distance_accuracy_value','confusion accuracy');
#1082 = PRODUCT_RELATED_PRODUCT_CATEGORY('part',$,(#7));
ENDSEC;
END-ISO-10303-21;
