<?xml version="1.0" encoding="utf-8" standalone="no"?>
<!DOCTYPE svg PUBLIC "-//W3C//DTD SVG 1.1//EN"
  "http://www.w3.org/Graphics/SVG/1.1/DTD/svg11.dtd">
<svg xmlns:xlink="http://www.w3.org/1999/xlink" width="684pt" height="244.8pt" viewBox="0 0 684 244.8" xmlns="http://www.w3.org/2000/svg" version="1.1">
 <metadata>
  <rdf:RDF xmlns:dc="http://purl.org/dc/elements/1.1/" xmlns:cc="http://creativecommons.org/ns#" xmlns:rdf="http://www.w3.org/1999/02/22-rdf-syntax-ns#">
   <cc:Work>
    <dc:type rdf:resource="http://purl.org/dc/dcmitype/StillImage"/>
    <dc:date>2026-09-29T11:49:23.725521</dc:date>
    <dc:format>image/svg+xml</dc:format>
    <dc:creator>
     <cc:Agent>
      <dc:title>Matplotlib v3.11.2, https://matplotlib.org/</dc:title>
     </cc:Agent>
    </dc:creator>
   </cc:Work>
  </rdf:RDF>
 </metadata>
 <defs>
  <style type="text/css">*{stroke-linejoin: round; stroke-linecap: butt}</style>
 </defs>
 <g id="figure_1">
  <g id="patch_1">
   <path d="M 0 244.8 
L 684 244.8 
L 684 0 
L 0 0 
z
" style="fill: #ffffff"/>
  </g>
  <g id="axes_1">
   <g id="patch_2">
    <path d="M 46.92 191.83048 
L 673.2 191.83048 
L 673.2 27.358594 
L 46.92 27.358594 
z
" style="fill: #ffffff"/>
   </g>
   <g id="patch_3">
    <path d="M 75.387273 191.83048 
L 99.283159 191.83048 
L 99.283159 118.405531 
L 75.387273 118.405531 
z
" clip-path="url(#pae75d598ad)" style="fill: #9aa8b6"/>
   </g>
   <g id="patch_4">
    <path d="M 140.321745 191.83048 
L 164.217631 191.83048 
L 164.217631 127.216525 
L 140.321745 127.216525 
z
" clip-path="url(#pae75d598ad)" style="fill: #9aa8b6"/>
   </g>
   <g id="patch_5">
    <path d="M 205.256218 191.83048 
L 229.152104 191.83048 
L 229.152104 107.685488 
L 205.256218 107.685488 
z
" clip-path="url(#pae75d598ad)" style="fill: #9aa8b6"/>
   </g>
   <g id="patch_6">
    <path d="M 270.19069 191.83048 
L 294.086576 191.83048 
L 294.086576 107.685488 
L 270.19069 107.685488 
z
" clip-path="url(#pae75d598ad)" style="fill: #9aa8b6"/>
   </g>
   <g id="patch_7">
    <path d="M 335.125163 191.83048 
L 359.021048 191.83048 
L 359.021048 141.901515 
L 335.125163 141.901515 
z
" clip-path="url(#pae75d598ad)" style="fill: #9aa8b6"/>
   </g>
   <g id="patch_8">
    <path d="M 400.059635 191.83048 
L 423.955521 191.83048 
L 423.955521 69.504515 
L 400.059635 69.504515 
z
" clip-path="url(#pae75d598ad)" style="fill: #9aa8b6"/>
   </g>
   <g id="patch_9">
    <path d="M 464.994107 191.83048 
L 488.889993 191.83048 
L 488.889993 136.468068 
L 464.994107 136.468068 
z
" clip-path="url(#pae75d598ad)" style="fill: #9aa8b6"/>
   </g>
   <g id="patch_10">
    <path d="M 529.92858 191.83048 
L 553.824466 191.83048 
L 553.824466 96.818596 
L 529.92858 96.818596 
z
" clip-path="url(#pae75d598ad)" style="fill: #9aa8b6"/>
   </g>
   <g id="patch_11">
    <path d="M 594.863052 191.83048 
L 618.758938 191.83048 
L 618.758938 90.0635 
L 594.863052 90.0635 
z
" clip-path="url(#pae75d598ad)" style="fill: #9aa8b6"/>
   </g>
   <g id="patch_12">
    <path d="M 101.361062 191.83048 
L 125.256948 191.83048 
L 125.256948 44.980582 
L 101.361062 44.980582 
z
" clip-path="url(#pae75d598ad)" style="fill: #1f6aa5"/>
   </g>
   <g id="patch_13">
    <path d="M 166.295534 191.83048 
L 190.19142 191.83048 
L 190.19142 45.421131 
L 166.295534 45.421131 
z
" clip-path="url(#pae75d598ad)" style="fill: #1f6aa5"/>
   </g>
   <g id="patch_14">
    <path d="M 231.230007 191.83048 
L 255.125893 191.83048 
L 255.125893 45.421131 
L 231.230007 45.421131 
z
" clip-path="url(#pae75d598ad)" style="fill: #1f6aa5"/>
   </g>
   <g id="patch_15">
    <path d="M 296.164479 191.83048 
L 320.060365 191.83048 
L 320.060365 44.980582 
L 296.164479 44.980582 
z
" clip-path="url(#pae75d598ad)" style="fill: #1f6aa5"/>
   </g>
   <g id="patch_16">
    <path d="M 361.098952 191.83048 
L 384.994837 191.83048 
L 384.994837 44.980582 
L 361.098952 44.980582 
z
" clip-path="url(#pae75d598ad)" style="fill: #1f6aa5"/>
   </g>
   <g id="patch_17">
    <path d="M 426.033424 191.83048 
L 449.92931 191.83048 
L 449.92931 44.980582 
L 426.033424 44.980582 
z
" clip-path="url(#pae75d598ad)" style="fill: #1f6aa5"/>
   </g>
   <g id="patch_18">
    <path d="M 490.967896 191.83048 
L 514.863782 191.83048 
L 514.863782 45.421131 
L 490.967896 45.421131 
z
" clip-path="url(#pae75d598ad)" style="fill: #1f6aa5"/>
   </g>
   <g id="patch_19">
    <path d="M 555.902369 191.83048 
L 579.798255 191.83048 
L 579.798255 44.980582 
L 555.902369 44.980582 
z
" clip-path="url(#pae75d598ad)" style="fill: #1f6aa5"/>
   </g>
   <g id="patch_20">
    <path d="M 620.836841 191.83048 
L 644.732727 191.83048 
L 644.732727 47.47703 
L 620.836841 47.47703 
z
" clip-path="url(#pae75d598ad)" style="fill: #1f6aa5"/>
   </g>
   <g id="matplotlib.axis_1">
    <g id="xtick_1">
     <g id="line2d_1">
      <defs>
       <path id="mefe06bc2a4" d="M 0 0 
L 0 3.5 
" style="stroke: #000000; stroke-width: 0.8"/>
      </defs>
      <g>
       <use xlink:href="#mefe06bc2a4" x="100.32211" y="191.83048" style="stroke: #000000; stroke-width: 0.8"/>
      </g>
     </g>
     <g id="text_1">
      <!-- 材質 -->
      <g transform="translate(90.32211 207.629308) scale(0.1 -0.1)">
       <defs>
        <path id="IPAGothic-75b" d="M 1613 2709 
Q 1238 1606 619 719 
L 313 1153 
Q 1122 2175 1509 3541 
L 478 3541 
L 478 3956 
L 1613 3956 
L 1613 5247 
L 2066 5247 
L 2066 3956 
L 2878 3956 
L 2878 3541 
L 2066 3541 
L 2066 2888 
Q 2659 2416 3044 1991 
L 2756 1556 
Q 2453 1950 2091 2344 
L 2066 2369 
L 2066 -447 
L 1613 -447 
L 1613 2709 
z
M 4725 2894 
Q 4138 1541 3053 569 
L 2694 947 
Q 4019 2003 4563 3541 
L 3053 3541 
L 3053 3956 
L 4697 3956 
L 4697 5216 
L 5156 5216 
L 5156 3956 
L 6022 3956 
L 6022 3541 
L 5184 3541 
L 5184 141 
Q 5184 -156 5028 -263 
Q 4894 -359 4575 -359 
Q 4150 -359 3688 -306 
L 3609 166 
Q 4122 94 4506 94 
Q 4725 94 4725 300 
L 4725 2894 
z
" transform="scale(0.015625)"/>
        <path id="IPAGothic-7f8" d="M 2022 3194 
L 2022 3922 
L 1297 3922 
Q 1194 3228 747 2763 
L 416 3047 
Q 916 3525 916 4347 
L 916 5006 
Q 1003 5006 1069 5013 
Q 2038 5041 2778 5203 
L 3028 4856 
Q 2116 4694 1325 4666 
L 1325 4341 
L 1325 4269 
L 3163 4269 
L 3163 3922 
L 2431 3922 
L 2431 3194 
L 3097 3194 
L 2906 3347 
Q 3403 3778 3403 4428 
L 3403 5013 
Q 3491 5013 3563 5019 
Q 4375 5038 5266 5222 
L 5613 4872 
Q 4728 4713 3806 4653 
L 3806 4416 
Q 3806 4319 3800 4269 
L 5913 4269 
L 5913 3922 
L 4941 3922 
L 4941 3194 
L 5178 3194 
L 5178 603 
L 1234 603 
L 1234 3194 
L 2022 3194 
z
M 3366 3194 
L 4538 3194 
L 4538 3922 
L 3759 3922 
Q 3666 3506 3366 3194 
z
M 4731 2853 
L 1688 2853 
L 1688 2444 
L 4731 2444 
L 4731 2853 
z
M 1688 2119 
L 1688 1700 
L 4731 1700 
L 4731 2119 
L 1688 2119 
z
M 1688 1375 
L 1688 944 
L 4731 944 
L 4731 1375 
L 1688 1375 
z
M 447 -116 
Q 1503 131 2253 588 
L 2663 325 
Q 1747 -241 794 -525 
L 447 -116 
z
M 5484 -441 
Q 4625 16 3634 319 
L 4056 594 
Q 5003 325 5888 -50 
L 5484 -441 
z
" transform="scale(0.015625)"/>
       </defs>
       <use xlink:href="#IPAGothic-75b"/>
       <use xlink:href="#IPAGothic-7f8" transform="translate(100 0)"/>
      </g>
     </g>
    </g>
    <g id="xtick_2">
     <g id="line2d_2">
      <g>
       <use xlink:href="#mefe06bc2a4" x="165.256583" y="191.83048" style="stroke: #000000; stroke-width: 0.8"/>
      </g>
     </g>
     <g id="text_2">
      <!-- 板厚 -->
      <g transform="translate(155.256583 207.629308) scale(0.1 -0.1)">
       <defs>
        <path id="IPAGothic-c63" d="M 1288 2638 
Q 953 1522 500 788 
L 231 1250 
Q 903 2206 1231 3547 
L 366 3547 
L 366 3950 
L 1288 3950 
L 1288 5300 
L 1722 5300 
L 1722 3950 
L 2559 3950 
L 2559 3547 
L 1722 3547 
L 1722 2919 
Q 2206 2497 2609 2003 
L 2363 1550 
Q 2072 2009 1722 2428 
L 1722 -447 
L 1288 -447 
L 1288 2638 
z
M 3225 4481 
L 3225 3353 
L 5397 3353 
L 5666 3116 
Q 5372 1909 4834 1069 
Q 5300 525 6075 56 
L 5738 -372 
Q 5128 63 4556 691 
Q 4016 19 3206 -475 
L 2913 -97 
Q 3706 328 4269 1056 
Q 3638 1956 3391 2944 
L 3225 2944 
Q 3216 1816 3091 1131 
Q 2919 216 2375 -463 
L 2056 -134 
Q 2772 831 2772 2797 
L 2772 4897 
L 5909 4897 
L 5909 4481 
L 3225 4481 
z
M 4531 1441 
Q 4928 2088 5147 2944 
L 3822 2944 
Q 3825 2934 3828 2913 
Q 3831 2891 3834 2878 
Q 4031 2147 4531 1441 
z
" transform="scale(0.015625)"/>
        <path id="IPAGothic-6bb" d="M 1253 4581 
L 1253 2775 
Q 1253 1528 1131 863 
Q 1006 181 653 -463 
L 288 -116 
Q 641 484 734 1297 
Q 800 1809 800 2731 
L 800 4978 
L 5888 4978 
L 5888 4581 
L 1253 4581 
z
M 5266 4178 
L 5266 2406 
L 1856 2406 
L 1856 4178 
L 5266 4178 
z
M 2284 3819 
L 2284 3481 
L 4838 3481 
L 4838 3819 
L 2284 3819 
z
M 2284 3128 
L 2284 2766 
L 4838 2766 
L 4838 3128 
L 2284 3128 
z
M 3878 1094 
L 3878 966 
L 6016 966 
L 6016 581 
L 3903 581 
L 3903 -6 
Q 3903 -447 3366 -447 
Q 2941 -447 2509 -409 
L 2413 44 
Q 2900 -31 3278 -31 
Q 3469 -31 3469 166 
L 3469 581 
L 1306 581 
L 1306 966 
L 3438 966 
L 3438 1331 
Q 3994 1431 4544 1644 
L 1791 1644 
L 1791 2016 
L 5228 2016 
L 5472 1753 
Q 4734 1347 3878 1094 
z
" transform="scale(0.015625)"/>
       </defs>
       <use xlink:href="#IPAGothic-c63"/>
       <use xlink:href="#IPAGothic-6bb" transform="translate(100 0)"/>
      </g>
     </g>
    </g>
    <g id="xtick_3">
     <g id="line2d_3">
      <g>
       <use xlink:href="#mefe06bc2a4" x="230.191055" y="191.83048" style="stroke: #000000; stroke-width: 0.8"/>
      </g>
     </g>
     <g id="text_3">
      <!-- 数量 -->
      <g transform="translate(220.191055 207.629308) scale(0.1 -0.1)">
       <defs>
        <path id="IPAGothic-945" d="M 2847 1553 
Q 2741 1006 2425 534 
Q 2622 444 3091 203 
L 2809 -188 
Q 2541 0 2144 209 
Q 1569 -291 703 -500 
L 422 -125 
Q 1263 19 1747 406 
Q 1219 650 734 816 
Q 978 1175 1147 1503 
L 1172 1553 
L 359 1553 
L 359 1925 
L 1344 1925 
Q 1406 2066 1569 2475 
L 1691 2450 
L 1691 3372 
Q 1250 2738 550 2303 
L 275 2663 
Q 1019 3013 1528 3641 
L 378 3641 
L 378 4006 
L 1691 4006 
L 1691 5313 
L 2113 5313 
L 2113 4006 
L 3297 4006 
L 3297 3641 
L 2113 3641 
L 2113 3513 
Q 2659 3291 3175 2963 
L 2956 2584 
Q 2553 2922 2113 3159 
L 2113 2372 
L 1966 2372 
Q 1928 2288 1872 2141 
Q 1806 1975 1784 1925 
L 3378 1925 
L 3378 1553 
L 2847 1553 
z
M 2419 1553 
L 1613 1553 
Q 1478 1269 1313 997 
Q 1559 909 2047 703 
Q 2313 1047 2419 1553 
z
M 4363 1163 
Q 3953 1781 3738 2638 
Q 3575 2281 3428 2016 
L 3103 2406 
Q 3675 3444 3916 5291 
L 4363 5200 
Q 4284 4666 4197 4197 
L 6009 4197 
L 6009 3775 
L 5503 3775 
Q 5397 2275 4869 1191 
Q 5419 503 6144 75 
L 5822 -378 
Q 5188 106 4631 788 
Q 4113 34 3341 -463 
L 3031 -78 
Q 3888 406 4363 1163 
z
M 4588 1594 
Q 4938 2388 5059 3775 
L 4100 3775 
Q 4041 3519 3972 3288 
Q 3981 3250 3991 3194 
Q 4175 2256 4588 1594 
z
M 1003 4116 
Q 878 4544 638 4934 
L 1053 5094 
Q 1247 4788 1438 4269 
L 1003 4116 
z
M 2316 4269 
Q 2550 4688 2688 5131 
L 3128 4997 
Q 2966 4588 2675 4128 
L 2316 4269 
z
" transform="scale(0.015625)"/>
        <path id="IPAGothic-e9f" d="M 5081 5159 
L 5081 3497 
L 1275 3497 
L 1275 5159 
L 5081 5159 
z
M 1716 4819 
L 1716 4475 
L 4647 4475 
L 4647 4819 
L 1716 4819 
z
M 1716 4175 
L 1716 3816 
L 4647 3816 
L 4647 4175 
L 1716 4175 
z
M 5238 2625 
L 5238 997 
L 3388 997 
L 3388 694 
L 5428 694 
L 5428 353 
L 3388 353 
L 3388 34 
L 6044 34 
L 6044 -331 
L 353 -331 
L 353 34 
L 2972 34 
L 2972 353 
L 969 353 
L 969 694 
L 2972 694 
L 2972 997 
L 1159 997 
L 1159 2625 
L 5238 2625 
z
M 1588 2325 
L 1588 1972 
L 2972 1972 
L 2972 2325 
L 1588 2325 
z
M 1588 1672 
L 1588 1303 
L 2972 1303 
L 2972 1672 
L 1588 1672 
z
M 4809 1303 
L 4809 1672 
L 3388 1672 
L 3388 1303 
L 4809 1303 
z
M 4809 1972 
L 4809 2325 
L 3388 2325 
L 3388 1972 
L 4809 1972 
z
M 384 3231 
L 6009 3231 
L 6009 2884 
L 384 2884 
L 384 3231 
z
" transform="scale(0.015625)"/>
       </defs>
       <use xlink:href="#IPAGothic-945"/>
       <use xlink:href="#IPAGothic-e9f" transform="translate(100 0)"/>
      </g>
     </g>
    </g>
    <g id="xtick_4">
     <g id="line2d_4">
      <g>
       <use xlink:href="#mefe06bc2a4" x="295.125528" y="191.83048" style="stroke: #000000; stroke-width: 0.8"/>
      </g>
     </g>
     <g id="text_4">
      <!-- 表面処理 -->
      <g transform="translate(275.125528 207.629308) scale(0.1 -0.1)">
       <defs>
        <path id="IPAGothic-cba" d="M 3209 2350 
Q 2856 1944 2328 1563 
L 2328 288 
Q 2975 438 3756 691 
L 3763 275 
Q 2538 -163 1188 -447 
L 981 13 
Q 1566 119 1819 175 
L 1875 188 
L 1875 1275 
Q 1303 941 506 666 
L 219 1056 
Q 1813 1509 2675 2356 
L 384 2356 
L 384 2753 
L 2978 2753 
L 2978 3309 
L 963 3309 
L 963 3694 
L 2978 3694 
L 2978 4219 
L 641 4219 
L 641 4603 
L 2978 4603 
L 2978 5313 
L 3431 5313 
L 3431 4603 
L 5763 4603 
L 5763 4219 
L 3431 4219 
L 3431 3694 
L 5434 3694 
L 5434 3309 
L 3431 3309 
L 3431 2753 
L 6016 2753 
L 6016 2356 
L 3634 2356 
Q 3863 1838 4244 1356 
Q 4781 1756 5166 2191 
L 5588 1894 
Q 5084 1419 4525 1056 
Q 5150 463 6106 66 
L 5738 -356 
Q 3850 575 3209 2350 
z
" transform="scale(0.015625)"/>
        <path id="IPAGothic-de3" d="M 3063 3616 
L 5628 3616 
L 5628 -447 
L 5175 -447 
L 5175 -97 
L 1222 -97 
L 1222 -447 
L 769 -447 
L 769 3616 
L 2619 3616 
Q 2781 4025 2869 4434 
L 353 4434 
L 353 4856 
L 6044 4856 
L 6044 4434 
L 3381 4434 
L 3369 4397 
Q 3222 3963 3063 3616 
z
M 2178 3219 
L 1222 3219 
L 1222 300 
L 2178 300 
L 2178 3219 
z
M 2600 3219 
L 2600 2509 
L 3772 2509 
L 3772 3219 
L 2600 3219 
z
M 4194 3219 
L 4194 300 
L 5175 300 
L 5175 3219 
L 4194 3219 
z
M 2600 2138 
L 2600 1428 
L 3772 1428 
L 3772 2138 
L 2600 2138 
z
M 2600 1056 
L 2600 300 
L 3772 300 
L 3772 1056 
L 2600 1056 
z
" transform="scale(0.015625)"/>
        <path id="IPAGothic-87d" d="M 2144 1263 
Q 2538 638 3147 425 
Q 3628 253 4741 253 
Q 5266 253 6163 303 
Q 6038 63 6009 -216 
Q 5450 -234 5094 -234 
Q 3675 -234 3097 -38 
Q 2388 206 1919 884 
Q 1366 6 734 -478 
L 397 -106 
Q 1128 384 1675 1306 
Q 1341 1969 1138 2913 
Q 934 2309 606 1775 
L 306 2159 
Q 1069 3425 1319 5219 
L 1759 5116 
Q 1694 4763 1631 4481 
L 2650 4481 
L 2903 4275 
Q 2759 2447 2144 1263 
z
M 1900 1744 
Q 2356 2797 2469 4066 
L 1528 4066 
Q 1463 3822 1388 3625 
Q 1534 2575 1900 1744 
z
M 5056 4756 
L 5056 1466 
Q 5056 1263 5269 1263 
Q 5466 1263 5484 1475 
Q 5506 1600 5516 2081 
L 5525 2222 
L 5953 2069 
Q 5944 1234 5831 1038 
Q 5728 859 5216 859 
Q 4888 859 4750 950 
Q 4622 1038 4622 1294 
L 4622 4353 
L 3872 4353 
L 3872 3759 
Q 3872 2547 3744 1916 
Q 3603 1244 3144 706 
L 2816 1025 
Q 3259 1563 3375 2369 
Q 3431 2809 3431 3566 
L 3431 4756 
L 5056 4756 
z
" transform="scale(0.015625)"/>
        <path id="IPAGothic-e72" d="M 1541 4397 
L 1541 3084 
L 2222 3084 
L 2222 2688 
L 1541 2688 
L 1541 1247 
Q 1916 1356 2400 1522 
L 2431 1144 
Q 1356 713 434 472 
L 263 909 
Q 759 1025 1113 1119 
L 1113 2688 
L 441 2688 
L 441 3084 
L 1113 3084 
L 1113 4397 
L 372 4397 
L 372 4800 
L 2350 4800 
L 2350 4397 
L 1541 4397 
z
M 5691 4991 
L 5691 2106 
L 4378 2106 
L 4378 1375 
L 5825 1375 
L 5825 984 
L 4378 984 
L 4378 206 
L 6081 206 
L 6081 -191 
L 2150 -191 
L 2150 206 
L 3944 206 
L 3944 984 
L 2559 984 
L 2559 1375 
L 3944 1375 
L 3944 2106 
L 2675 2106 
L 2675 4991 
L 5691 4991 
z
M 3091 4606 
L 3091 3750 
L 3956 3750 
L 3956 4606 
L 3091 4606 
z
M 3091 3378 
L 3091 2491 
L 3956 2491 
L 3956 3378 
L 3091 3378 
z
M 5275 2491 
L 5275 3378 
L 4366 3378 
L 4366 2491 
L 5275 2491 
z
M 5275 3750 
L 5275 4606 
L 4366 4606 
L 4366 3750 
L 5275 3750 
z
" transform="scale(0.015625)"/>
       </defs>
       <use xlink:href="#IPAGothic-cba"/>
       <use xlink:href="#IPAGothic-de3" transform="translate(100 0)"/>
       <use xlink:href="#IPAGothic-87d" transform="translate(200 0)"/>
       <use xlink:href="#IPAGothic-e72" transform="translate(300 0)"/>
      </g>
     </g>
    </g>
    <g id="xtick_5">
     <g id="line2d_5">
      <g>
       <use xlink:href="#mefe06bc2a4" x="360.06" y="191.83048" style="stroke: #000000; stroke-width: 0.8"/>
      </g>
     </g>
     <g id="text_5">
      <!-- 追加加工 -->
      <g transform="translate(340.06 207.629308) scale(0.1 -0.1)">
       <defs>
        <path id="IPAGothic-af0" d="M 1825 781 
Q 2088 459 2472 313 
Q 2894 159 4188 159 
Q 5219 159 6119 222 
Q 6003 9 5947 -263 
Q 5016 -294 4422 -294 
Q 2791 -294 2259 -56 
Q 1838 128 1594 491 
Q 1109 -69 659 -444 
L 366 44 
Q 875 344 1372 775 
L 1372 2303 
L 397 2303 
L 397 2731 
L 1825 2731 
L 1825 781 
z
M 3566 4513 
Q 3672 4841 3750 5294 
L 4263 5203 
Q 4109 4753 4013 4513 
L 5497 4513 
L 5497 2981 
L 2938 2981 
L 2938 2394 
L 5666 2394 
L 5666 531 
L 5225 531 
L 5225 844 
L 2938 844 
L 2938 459 
L 2497 459 
L 2497 4513 
L 3566 4513 
z
M 2938 4141 
L 2938 3359 
L 5063 3359 
L 5063 4141 
L 2938 4141 
z
M 2938 2009 
L 2938 1228 
L 5225 1228 
L 5225 2009 
L 2938 2009 
z
M 1606 3622 
Q 1253 4113 622 4703 
L 959 4997 
Q 1488 4578 1966 3975 
L 1606 3622 
z
" transform="scale(0.015625)"/>
        <path id="IPAGothic-44e" d="M 1906 3603 
Q 1888 825 653 -428 
L 313 -56 
Q 1413 916 1459 3553 
L 447 3553 
L 447 3969 
L 1459 3969 
L 1459 5147 
L 1906 5147 
L 1906 4019 
L 3197 4019 
Q 3159 944 3013 219 
Q 2944 -88 2788 -197 
Q 2641 -288 2359 -288 
Q 1997 -288 1669 -228 
L 1600 256 
Q 1916 153 2238 153 
Q 2550 153 2597 500 
Q 2722 1353 2750 3309 
L 2750 3603 
L 1906 3603 
z
M 5816 4313 
L 5816 -306 
L 5375 -306 
L 5375 109 
L 4216 109 
L 4216 -366 
L 3775 -366 
L 3775 4313 
L 5816 4313 
z
M 4216 3897 
L 4216 525 
L 5375 525 
L 5375 3897 
L 4216 3897 
z
" transform="scale(0.015625)"/>
        <path id="IPAGothic-6c6" d="M 3431 4053 
L 3431 613 
L 5944 613 
L 5944 166 
L 447 166 
L 447 613 
L 2925 613 
L 2925 4053 
L 800 4053 
L 800 4506 
L 5600 4506 
L 5600 4053 
L 3431 4053 
z
" transform="scale(0.015625)"/>
       </defs>
       <use xlink:href="#IPAGothic-af0"/>
       <use xlink:href="#IPAGothic-44e" transform="translate(100 0)"/>
       <use xlink:href="#IPAGothic-44e" transform="translate(200 0)"/>
       <use xlink:href="#IPAGothic-6c6" transform="translate(300 0)"/>
      </g>
     </g>
    </g>
    <g id="xtick_6">
     <g id="line2d_6">
      <g>
       <use xlink:href="#mefe06bc2a4" x="424.994472" y="191.83048" style="stroke: #000000; stroke-width: 0.8"/>
      </g>
     </g>
     <g id="text_6">
      <!-- 特急 -->
      <g transform="translate(414.994472 207.629308) scale(0.1 -0.1)">
       <defs>
        <path id="IPAGothic-ba6" d="M 1025 3950 
L 1434 3950 
L 1434 5313 
L 1875 5313 
L 1875 3950 
L 2534 3950 
L 2534 3547 
L 1875 3547 
L 1875 2216 
Q 2084 2313 2494 2516 
L 2547 2106 
Q 2272 1956 1856 1750 
L 1856 -447 
L 1416 -447 
L 1416 1538 
Q 1028 1359 538 1153 
L 313 1581 
Q 778 1744 1434 2019 
L 1434 3547 
L 947 3547 
Q 828 3013 647 2556 
L 275 2803 
Q 584 3600 691 4744 
L 1131 4684 
Q 1091 4291 1025 3950 
z
M 3872 4372 
L 3872 5313 
L 4313 5313 
L 4313 4372 
L 5741 4372 
L 5741 3981 
L 4313 3981 
L 4313 3200 
L 6072 3200 
L 6072 2803 
L 5106 2803 
L 5106 2047 
L 5956 2047 
L 5956 1650 
L 5125 1650 
L 5125 38 
Q 5125 -447 4594 -447 
Q 4288 -447 3788 -391 
L 3691 78 
Q 4181 0 4491 0 
Q 4684 0 4684 172 
L 4684 1650 
L 2613 1650 
L 2613 2047 
L 4666 2047 
L 4666 2803 
L 2400 2803 
L 2400 3200 
L 3872 3200 
L 3872 3981 
L 2656 3981 
L 2656 4372 
L 3872 4372 
z
M 3550 384 
Q 3216 959 2834 1331 
L 3172 1575 
Q 3641 1116 3916 672 
L 3550 384 
z
" transform="scale(0.015625)"/>
        <path id="IPAGothic-583" d="M 3784 3859 
L 5372 3859 
L 5372 1766 
L 1019 1766 
L 1019 2150 
L 4913 2150 
L 4913 2638 
L 1244 2638 
L 1244 3009 
L 4913 3009 
L 4913 3475 
L 1294 3475 
Q 1003 3244 653 3028 
L 359 3341 
Q 1647 4156 2159 5288 
L 2634 5222 
Q 2538 5025 2472 4903 
L 4259 4903 
L 4444 4691 
Q 4059 4159 3784 3859 
z
M 3203 3859 
Q 3494 4159 3778 4544 
L 2263 4544 
Q 1997 4147 1719 3859 
L 3203 3859 
z
M 431 63 
Q 891 591 1184 1403 
L 1606 1241 
Q 1309 359 806 -269 
L 431 63 
z
M 2009 1441 
L 2478 1441 
L 2478 341 
Q 2478 172 2588 141 
Q 2722 103 3334 103 
Q 4203 103 4303 231 
Q 4384 331 4384 806 
L 4841 659 
Q 4809 -41 4578 -197 
Q 4375 -331 3375 -331 
Q 2441 -331 2241 -234 
Q 2009 -131 2009 184 
L 2009 1441 
z
M 3541 538 
Q 3203 1103 2850 1497 
L 3206 1697 
Q 3584 1338 3925 775 
L 3541 538 
z
M 5672 -72 
Q 5169 700 4519 1300 
L 4878 1550 
Q 5544 969 6069 269 
L 5672 -72 
z
" transform="scale(0.015625)"/>
       </defs>
       <use xlink:href="#IPAGothic-ba6"/>
       <use xlink:href="#IPAGothic-583" transform="translate(100 0)"/>
      </g>
     </g>
    </g>
    <g id="xtick_7">
     <g id="line2d_7">
      <g>
       <use xlink:href="#mefe06bc2a4" x="489.928945" y="191.83048" style="stroke: #000000; stroke-width: 0.8"/>
      </g>
     </g>
     <g id="text_7">
      <!-- 図番 -->
      <g transform="translate(479.928945 207.629308) scale(0.1 -0.1)">
       <defs>
        <path id="IPAGothic-92f" d="M 3375 1428 
Q 2606 747 1625 447 
L 1356 831 
Q 2297 1091 2966 1631 
L 2791 1709 
Q 2138 2022 1338 2328 
L 1575 2669 
Q 2356 2375 3297 1941 
Q 4069 2759 4422 4178 
L 4853 4013 
Q 4456 2588 3694 1747 
Q 4313 1434 5000 1050 
L 4706 666 
Q 4113 1041 3431 1394 
L 3375 1428 
z
M 2131 2681 
Q 1897 3466 1625 3903 
L 2038 4084 
Q 2331 3563 2559 2869 
L 2131 2681 
z
M 3169 2834 
Q 2934 3603 2663 4056 
L 3059 4225 
Q 3366 3728 3597 3022 
L 3169 2834 
z
M 5769 4984 
L 5769 -447 
L 5300 -447 
L 5300 -128 
L 1097 -128 
L 1097 -447 
L 628 -447 
L 628 4984 
L 5769 4984 
z
M 1097 4575 
L 1097 275 
L 5300 275 
L 5300 4575 
L 1097 4575 
z
" transform="scale(0.015625)"/>
        <path id="IPAGothic-c75" d="M 1253 1753 
Q 941 1581 619 1428 
L 313 1791 
Q 1613 2275 2572 3188 
L 509 3188 
L 509 3559 
L 1791 3559 
Q 1663 3897 1450 4200 
L 1900 4294 
Q 2122 3972 2284 3559 
L 2956 3559 
L 2956 4506 
Q 2700 4488 2438 4469 
Q 1634 4406 1028 4384 
L 819 4775 
Q 3231 4853 4894 5153 
L 5284 4775 
Q 4138 4600 3569 4556 
L 3397 4544 
L 3397 3559 
L 4006 3559 
Q 4319 4088 4491 4538 
L 4953 4378 
Q 4716 3934 4453 3559 
L 5881 3559 
L 5881 3188 
L 3819 3188 
Q 4591 2484 6094 1919 
L 5797 1538 
Q 5600 1619 5138 1838 
L 5138 -447 
L 4697 -447 
L 4697 -213 
L 1694 -213 
L 1694 -447 
L 1253 -447 
L 1253 1753 
z
M 1834 2113 
L 2956 2113 
L 2956 3103 
Q 2494 2553 1834 2113 
z
M 4697 153 
L 4697 813 
L 3384 813 
L 3384 153 
L 4697 153 
z
M 4697 1166 
L 4697 1753 
L 3384 1753 
L 3384 1166 
L 4697 1166 
z
M 4647 2113 
Q 3888 2575 3397 3131 
L 3397 2113 
L 4647 2113 
z
M 1694 1753 
L 1694 1166 
L 2969 1166 
L 2969 1753 
L 1694 1753 
z
M 1694 813 
L 1694 153 
L 2969 153 
L 2969 813 
L 1694 813 
z
" transform="scale(0.015625)"/>
       </defs>
       <use xlink:href="#IPAGothic-92f"/>
       <use xlink:href="#IPAGothic-c75" transform="translate(100 0)"/>
      </g>
     </g>
    </g>
    <g id="xtick_8">
     <g id="line2d_8">
      <g>
       <use xlink:href="#mefe06bc2a4" x="554.863417" y="191.83048" style="stroke: #000000; stroke-width: 0.8"/>
      </g>
     </g>
     <g id="text_8">
      <!-- 改訂 -->
      <g transform="translate(544.863417 207.629308) scale(0.1 -0.1)">
       <defs>
        <path id="IPAGothic-489" d="M 2197 2713 
L 1063 2713 
L 1063 881 
Q 1063 678 1159 638 
Q 1256 594 1684 594 
Q 2328 594 2394 747 
Q 2472 891 2491 1431 
L 2944 1325 
L 2938 1222 
Q 2881 563 2741 384 
Q 2556 153 1716 153 
Q 956 153 775 269 
Q 616 372 616 684 
L 616 3109 
L 2197 3109 
L 2197 4391 
L 384 4391 
L 384 4794 
L 2631 4794 
L 2631 2431 
L 2197 2431 
L 2197 2713 
z
M 4244 1191 
Q 3828 1784 3491 2763 
L 3469 2731 
Q 3297 2325 3041 1956 
L 2709 2284 
Q 3384 3228 3638 5284 
L 4097 5209 
Q 4009 4556 3925 4197 
L 5953 4197 
L 5953 3775 
L 5416 3775 
Q 5319 2197 4800 1247 
L 4781 1216 
Q 5325 556 6100 50 
L 5775 -391 
Q 5066 116 4519 806 
Q 3963 38 3003 -494 
L 2684 -97 
Q 3647 325 4244 1191 
z
M 4488 1625 
Q 4859 2384 4956 3731 
Q 4956 3763 4963 3775 
L 3828 3775 
Q 3822 3744 3784 3613 
Q 3750 3497 3725 3403 
Q 3991 2419 4488 1625 
z
" transform="scale(0.015625)"/>
        <path id="IPAGothic-b22" d="M 2853 1684 
L 2853 -384 
L 2413 -384 
L 2413 -128 
L 1094 -128 
L 1094 -447 
L 653 -447 
L 653 1684 
L 2853 1684 
z
M 1094 1300 
L 1094 256 
L 2413 256 
L 2413 1300 
L 1094 1300 
z
M 5025 4322 
L 5025 141 
Q 5025 -150 4878 -269 
Q 4753 -366 4441 -366 
Q 4031 -366 3681 -319 
L 3591 178 
Q 4013 103 4331 103 
Q 4556 103 4556 341 
L 4556 4322 
L 3175 4322 
L 3175 4750 
L 6081 4750 
L 6081 4322 
L 5025 4322 
z
M 781 5044 
L 2722 5044 
L 2722 4647 
L 781 4647 
L 781 5044 
z
M 384 4206 
L 3078 4206 
L 3078 3803 
L 384 3803 
L 384 4206 
z
M 781 3359 
L 2722 3359 
L 2722 2963 
L 781 2963 
L 781 3359 
z
M 781 2522 
L 2722 2522 
L 2722 2125 
L 781 2125 
L 781 2522 
z
" transform="scale(0.015625)"/>
       </defs>
       <use xlink:href="#IPAGothic-489"/>
       <use xlink:href="#IPAGothic-b22" transform="translate(100 0)"/>
      </g>
     </g>
    </g>
    <g id="xtick_9">
     <g id="line2d_9">
      <g>
       <use xlink:href="#mefe06bc2a4" x="619.79789" y="191.83048" style="stroke: #000000; stroke-width: 0.8"/>
      </g>
     </g>
     <g id="text_9">
      <!-- 特記事項 -->
      <g transform="translate(599.79789 207.629308) scale(0.1 -0.1)">
       <defs>
        <path id="IPAGothic-552" d="M 3603 2425 
L 3603 506 
Q 3603 288 3719 238 
Q 3853 188 4444 188 
Q 5363 188 5463 372 
Q 5553 550 5566 1319 
L 6038 1191 
Q 5991 191 5838 -31 
Q 5709 -200 5444 -238 
Q 5094 -288 4469 -288 
Q 3666 -288 3444 -209 
Q 3150 -106 3150 309 
L 3150 2834 
L 5200 2834 
L 5200 4372 
L 2919 4372 
L 2919 4781 
L 5641 4781 
L 5641 2081 
L 5200 2081 
L 5200 2425 
L 3603 2425 
z
M 2566 1684 
L 2566 -128 
L 991 -128 
L 991 -447 
L 563 -447 
L 563 1684 
L 2566 1684 
z
M 991 1313 
L 991 244 
L 2138 244 
L 2138 1313 
L 991 1313 
z
M 672 5044 
L 2459 5044 
L 2459 4659 
L 672 4659 
L 672 5044 
z
M 366 4206 
L 2734 4206 
L 2734 3816 
L 366 3816 
L 366 4206 
z
M 672 3359 
L 2459 3359 
L 2459 2975 
L 672 2975 
L 672 3359 
z
M 672 2522 
L 2459 2522 
L 2459 2138 
L 672 2138 
L 672 2522 
z
" transform="scale(0.015625)"/>
        <path id="IPAGothic-7cf" d="M 2950 3922 
L 2950 4294 
L 478 4294 
L 478 4659 
L 2950 4659 
L 2950 5313 
L 3403 5313 
L 3403 4659 
L 5919 4659 
L 5919 4294 
L 3403 4294 
L 3403 3922 
L 5234 3922 
L 5234 2822 
L 3403 2822 
L 3403 2450 
L 5325 2450 
L 5325 1759 
L 6078 1759 
L 6078 1381 
L 5325 1381 
L 5325 397 
L 4884 397 
L 4884 672 
L 3403 672 
L 3403 6 
Q 3403 -263 3269 -356 
Q 3150 -441 2841 -441 
Q 2497 -441 2116 -403 
L 2041 56 
Q 2447 -25 2731 -25 
Q 2950 -25 2950 159 
L 2950 672 
L 844 672 
L 844 1025 
L 2950 1025 
L 2950 1394 
L 319 1394 
L 319 1747 
L 2950 1747 
L 2950 2097 
L 838 2097 
L 838 2450 
L 2950 2450 
L 2950 2822 
L 1156 2822 
L 1156 3922 
L 2950 3922 
z
M 2950 3591 
L 1584 3591 
L 1584 3163 
L 2950 3163 
L 2950 3591 
z
M 3403 3591 
L 3403 3163 
L 4806 3163 
L 4806 3591 
L 3403 3591 
z
M 3403 1025 
L 4884 1025 
L 4884 1394 
L 3403 1394 
L 3403 1025 
z
M 3403 1747 
L 4884 1747 
L 4884 2097 
L 3403 2097 
L 3403 1747 
z
" transform="scale(0.015625)"/>
        <path id="IPAGothic-6fd" d="M 4281 4031 
L 5613 4031 
L 5613 788 
L 4756 788 
Q 5434 478 6131 -44 
L 5797 -428 
Q 5103 141 4409 488 
L 4756 788 
L 2828 788 
L 2828 4031 
L 3866 4031 
Q 3944 4300 4006 4647 
L 2444 4647 
L 2444 5056 
L 5978 5056 
L 5978 4647 
L 4472 4647 
Q 4388 4309 4281 4031 
z
M 5178 3647 
L 3263 3647 
L 3263 3084 
L 5178 3084 
L 5178 3647 
z
M 3263 2706 
L 3263 2138 
L 5178 2138 
L 5178 2706 
L 3263 2706 
z
M 3263 1766 
L 3263 1172 
L 5178 1172 
L 5178 1766 
L 3263 1766 
z
M 1644 4006 
L 1644 1538 
Q 2100 1697 2541 1863 
L 2600 1478 
Q 1825 1122 447 659 
L 250 1113 
Q 816 1269 1131 1369 
L 1191 1388 
L 1191 4006 
L 378 4006 
L 378 4434 
L 2516 4434 
L 2516 4006 
L 1644 4006 
z
M 2131 -153 
Q 2997 203 3547 781 
L 3925 513 
Q 3381 -59 2484 -519 
L 2131 -153 
z
" transform="scale(0.015625)"/>
       </defs>
       <use xlink:href="#IPAGothic-ba6"/>
       <use xlink:href="#IPAGothic-552" transform="translate(100 0)"/>
       <use xlink:href="#IPAGothic-7cf" transform="translate(200 0)"/>
       <use xlink:href="#IPAGothic-6fd" transform="translate(300 0)"/>
      </g>
     </g>
    </g>
   </g>
   <g id="matplotlib.axis_2">
    <g id="ytick_1">
     <g id="line2d_10">
      <defs>
       <path id="m131137ee8f" d="M 0 0 
L -3.5 0 
" style="stroke: #000000; stroke-width: 0.8"/>
      </defs>
      <g>
       <use xlink:href="#m131137ee8f" x="46.92" y="191.83048" style="stroke: #000000; stroke-width: 0.8"/>
      </g>
     </g>
     <g id="text_10">
      <!-- 0 -->
      <g transform="translate(34.92 196.229894) scale(0.1 -0.1)">
       <defs>
        <path id="IPAGothic-d6" d="M 1600 4934 
Q 2844 4934 2844 2566 
Q 2844 197 1600 197 
Q 359 197 359 2566 
Q 359 4934 1600 4934 
z
M 975 1453 
L 2119 4063 
Q 1938 4494 1594 4494 
Q 884 4494 884 2566 
Q 884 1909 975 1453 
z
M 1081 1075 
Q 1256 638 1600 638 
Q 2319 638 2319 2572 
Q 2319 3213 2228 3675 
L 1081 1075 
z
" transform="scale(0.015625)"/>
       </defs>
       <use xlink:href="#IPAGothic-d6"/>
      </g>
     </g>
    </g>
    <g id="ytick_2">
     <g id="line2d_11">
      <g>
       <use xlink:href="#m131137ee8f" x="46.92" y="162.4605" style="stroke: #000000; stroke-width: 0.8"/>
      </g>
     </g>
     <g id="text_11">
      <!-- 20 -->
      <g transform="translate(29.92 166.859914) scale(0.1 -0.1)">
       <defs>
        <path id="IPAGothic-d8" d="M 2900 325 
L 250 325 
Q 441 1553 1528 2453 
Q 1963 2806 2116 3034 
Q 2316 3319 2316 3706 
Q 2316 4022 2175 4219 
Q 1994 4494 1631 4494 
Q 894 4494 825 3406 
L 322 3406 
Q 359 4056 628 4428 
Q 981 4928 1644 4928 
Q 2106 4928 2425 4659 
Q 2828 4313 2828 3713 
Q 2828 2875 1881 2156 
Q 1072 1541 909 800 
L 2900 800 
L 2900 325 
z
" transform="scale(0.015625)"/>
       </defs>
       <use xlink:href="#IPAGothic-d8"/>
       <use xlink:href="#IPAGothic-d6" transform="translate(50 0)"/>
      </g>
     </g>
    </g>
    <g id="ytick_3">
     <g id="line2d_12">
      <g>
       <use xlink:href="#m131137ee8f" x="46.92" y="133.090521" style="stroke: #000000; stroke-width: 0.8"/>
      </g>
     </g>
     <g id="text_12">
      <!-- 40 -->
      <g transform="translate(29.92 137.489935) scale(0.1 -0.1)">
       <defs>
        <path id="IPAGothic-da" d="M 1966 4806 
L 2509 4806 
L 2509 1869 
L 3041 1869 
L 3041 1434 
L 2509 1434 
L 2509 325 
L 2034 325 
L 2034 1434 
L 159 1434 
L 159 1881 
L 1966 4806 
z
M 2034 4109 
L 641 1869 
L 2034 1869 
L 2034 4109 
z
" transform="scale(0.015625)"/>
       </defs>
       <use xlink:href="#IPAGothic-da"/>
       <use xlink:href="#IPAGothic-d6" transform="translate(50 0)"/>
      </g>
     </g>
    </g>
    <g id="ytick_4">
     <g id="line2d_13">
      <g>
       <use xlink:href="#m131137ee8f" x="46.92" y="103.720541" style="stroke: #000000; stroke-width: 0.8"/>
      </g>
     </g>
     <g id="text_13">
      <!-- 60 -->
      <g transform="translate(29.92 108.119955) scale(0.1 -0.1)">
       <defs>
        <path id="IPAGothic-dc" d="M 2322 3809 
Q 2225 4488 1713 4488 
Q 1269 4488 1028 3950 
Q 803 3447 794 2588 
Q 1159 3119 1725 3119 
Q 2194 3119 2519 2772 
Q 2903 2369 2903 1709 
Q 2903 1159 2641 750 
Q 2284 200 1638 200 
Q 1050 200 697 738 
Q 319 1328 319 2375 
Q 319 3488 650 4172 
Q 1028 4934 1706 4934 
Q 2634 4934 2847 3809 
L 2322 3809 
z
M 1644 2703 
Q 1272 2703 1047 2363 
Q 875 2094 875 1691 
Q 875 1328 997 1075 
Q 1209 641 1650 641 
Q 2003 641 2219 959 
Q 2409 1241 2409 1697 
Q 2409 2113 2244 2375 
Q 2041 2703 1644 2703 
z
" transform="scale(0.015625)"/>
       </defs>
       <use xlink:href="#IPAGothic-dc"/>
       <use xlink:href="#IPAGothic-d6" transform="translate(50 0)"/>
      </g>
     </g>
    </g>
    <g id="ytick_5">
     <g id="line2d_14">
      <g>
       <use xlink:href="#m131137ee8f" x="46.92" y="74.350561" style="stroke: #000000; stroke-width: 0.8"/>
      </g>
     </g>
     <g id="text_14">
      <!-- 80 -->
      <g transform="translate(29.92 78.749975) scale(0.1 -0.1)">
       <defs>
        <path id="IPAGothic-de" d="M 1050 2741 
Q 403 3056 403 3750 
Q 403 4084 563 4359 
Q 900 4934 1600 4934 
Q 1950 4934 2253 4750 
Q 2797 4416 2797 3750 
Q 2797 3056 2150 2741 
Q 2978 2422 2978 1541 
Q 2978 1038 2697 678 
Q 2322 197 1600 197 
Q 988 197 616 550 
Q 225 922 225 1541 
Q 225 2422 1050 2741 
z
M 1600 4525 
Q 1278 4525 1075 4294 
Q 891 4078 891 3756 
Q 891 3544 969 3372 
Q 1159 2956 1606 2956 
Q 1863 2956 2041 3116 
Q 2309 3347 2309 3756 
Q 2309 4156 2041 4378 
Q 1856 4525 1600 4525 
z
M 1594 2497 
Q 1178 2497 931 2191 
Q 725 1925 725 1541 
Q 725 1172 925 925 
Q 1172 619 1600 619 
Q 2031 619 2281 925 
Q 2478 1172 2478 1541 
Q 2478 2022 2184 2278 
Q 1947 2497 1594 2497 
z
" transform="scale(0.015625)"/>
       </defs>
       <use xlink:href="#IPAGothic-de"/>
       <use xlink:href="#IPAGothic-d6" transform="translate(50 0)"/>
      </g>
     </g>
    </g>
    <g id="ytick_6">
     <g id="line2d_15">
      <g>
       <use xlink:href="#m131137ee8f" x="46.92" y="44.980582" style="stroke: #000000; stroke-width: 0.8"/>
      </g>
     </g>
     <g id="text_15">
      <!-- 100 -->
      <g transform="translate(24.92 49.379996) scale(0.1 -0.1)">
       <defs>
        <path id="IPAGothic-d7" d="M 1428 325 
L 1428 4153 
Q 1188 3991 756 3809 
L 756 4325 
Q 1256 4509 1563 4806 
L 1953 4806 
L 1953 325 
L 1428 325 
z
" transform="scale(0.015625)"/>
       </defs>
       <use xlink:href="#IPAGothic-d7"/>
       <use xlink:href="#IPAGothic-d6" transform="translate(50 0)"/>
       <use xlink:href="#IPAGothic-d6" transform="translate(100 0)"/>
      </g>
     </g>
    </g>
    <g id="text_16">
     <!-- % -->
     <g transform="translate(19.718828 112.094537) rotate(-90) scale(0.1 -0.1)">
      <defs>
       <path id="IPAGothic-cb" d="M 2669 5300 
L 3072 5300 
L 525 -434 
L 122 -434 
L 2669 5300 
z
M 881 5141 
Q 1200 5141 1388 4828 
Q 1600 4481 1600 3859 
Q 1600 3309 1428 2963 
Q 1234 2578 875 2578 
Q 563 2578 372 2906 
Q 166 3256 166 3866 
Q 166 4438 344 4769 
Q 544 5141 881 5141 
z
M 881 4781 
Q 575 4781 575 3859 
Q 575 2938 881 2938 
Q 1191 2938 1191 3866 
Q 1191 4781 881 4781 
z
M 2316 2284 
Q 2634 2284 2822 1972 
Q 3034 1625 3034 1006 
Q 3034 453 2863 109 
Q 2669 -275 2309 -275 
Q 1997 -275 1806 50 
Q 1600 403 1600 1013 
Q 1600 1584 1778 1913 
Q 1978 2284 2316 2284 
z
M 2316 1925 
Q 2009 1925 2009 1006 
Q 2009 84 2316 84 
Q 2625 84 2625 1013 
Q 2625 1925 2316 1925 
z
" transform="scale(0.015625)"/>
      </defs>
      <use xlink:href="#IPAGothic-cb"/>
     </g>
    </g>
   </g>
   <g id="patch_21">
    <path d="M 46.92 191.83048 
L 46.92 27.358594 
" style="fill: none; stroke: #000000; stroke-width: 0.8; stroke-linejoin: miter; stroke-linecap: square"/>
   </g>
   <g id="patch_22">
    <path d="M 46.92 191.83048 
L 673.2 191.83048 
" style="fill: none; stroke: #000000; stroke-width: 0.8; stroke-linejoin: miter; stroke-linecap: square"/>
   </g>
   <g id="text_17">
    <!-- 50 -->
    <g transform="translate(83.585216 115.859933) scale(0.075 -0.075)">
     <defs>
      <path id="IPAGothic-db" d="M 566 4806 
L 2691 4806 
L 2691 4359 
L 1013 4359 
L 944 2888 
Q 1259 3250 1738 3250 
Q 2250 3250 2588 2816 
Q 2909 2397 2909 1772 
Q 2909 1238 2697 844 
Q 2341 197 1591 197 
Q 538 197 328 1375 
L 841 1375 
Q 947 644 1588 644 
Q 2000 644 2228 997 
Q 2422 1294 2422 1766 
Q 2422 2184 2259 2456 
Q 2059 2822 1653 2822 
Q 1156 2822 859 2225 
L 456 2309 
L 566 4806 
z
" transform="scale(0.015625)"/>
     </defs>
     <use xlink:href="#IPAGothic-db"/>
     <use xlink:href="#IPAGothic-d6" transform="translate(50 0)"/>
    </g>
   </g>
   <g id="text_18">
    <!-- 44 -->
    <g transform="translate(148.519688 124.670927) scale(0.075 -0.075)">
     <use xlink:href="#IPAGothic-da"/>
     <use xlink:href="#IPAGothic-da" transform="translate(50 0)"/>
    </g>
   </g>
   <g id="text_19">
    <!-- 57 -->
    <g transform="translate(213.454161 105.13989) scale(0.075 -0.075)">
     <defs>
      <path id="IPAGothic-dd" d="M 319 4806 
L 2878 4806 
L 2878 4441 
Q 1978 2213 1528 325 
L 947 325 
Q 1434 2050 2328 4319 
L 319 4319 
L 319 4806 
z
" transform="scale(0.015625)"/>
     </defs>
     <use xlink:href="#IPAGothic-db"/>
     <use xlink:href="#IPAGothic-dd" transform="translate(50 0)"/>
    </g>
   </g>
   <g id="text_20">
    <!-- 57 -->
    <g transform="translate(278.388633 105.13989) scale(0.075 -0.075)">
     <use xlink:href="#IPAGothic-db"/>
     <use xlink:href="#IPAGothic-dd" transform="translate(50 0)"/>
    </g>
   </g>
   <g id="text_21">
    <!-- 34 -->
    <g transform="translate(343.323106 139.355917) scale(0.075 -0.075)">
     <defs>
      <path id="IPAGothic-d9" d="M 1113 2931 
L 1431 2931 
Q 1841 2931 1994 3047 
Q 2281 3269 2281 3713 
Q 2281 4500 1566 4500 
Q 972 4500 838 3828 
L 331 3828 
Q 400 4250 625 4525 
Q 969 4934 1566 4934 
Q 2066 4934 2391 4647 
Q 2775 4309 2775 3731 
Q 2775 2953 2078 2713 
Q 2919 2388 2919 1528 
Q 2919 978 2606 625 
Q 2231 197 1575 197 
Q 959 197 594 619 
Q 325 928 269 1472 
L 794 1472 
Q 859 638 1575 638 
Q 1906 638 2131 825 
Q 2413 1066 2413 1528 
Q 2413 2522 1431 2522 
L 1113 2522 
L 1113 2931 
z
" transform="scale(0.015625)"/>
     </defs>
     <use xlink:href="#IPAGothic-d9"/>
     <use xlink:href="#IPAGothic-da" transform="translate(50 0)"/>
    </g>
   </g>
   <g id="text_22">
    <!-- 83 -->
    <g transform="translate(408.257578 66.958917) scale(0.075 -0.075)">
     <use xlink:href="#IPAGothic-de"/>
     <use xlink:href="#IPAGothic-d9" transform="translate(50 0)"/>
    </g>
   </g>
   <g id="text_23">
    <!-- 38 -->
    <g transform="translate(473.19205 133.922471) scale(0.075 -0.075)">
     <use xlink:href="#IPAGothic-d9"/>
     <use xlink:href="#IPAGothic-de" transform="translate(50 0)"/>
    </g>
   </g>
   <g id="text_24">
    <!-- 65 -->
    <g transform="translate(538.126523 94.272998) scale(0.075 -0.075)">
     <use xlink:href="#IPAGothic-dc"/>
     <use xlink:href="#IPAGothic-db" transform="translate(50 0)"/>
    </g>
   </g>
   <g id="text_25">
    <!-- 69 -->
    <g transform="translate(603.060995 87.517903) scale(0.075 -0.075)">
     <defs>
      <path id="IPAGothic-df" d="M 909 1363 
Q 988 666 1569 666 
Q 2431 666 2422 2500 
Q 2063 1972 1519 1972 
Q 859 1972 531 2588 
Q 347 2947 347 3419 
Q 347 4019 672 4459 
Q 1022 4934 1569 4934 
Q 2888 4934 2888 2706 
Q 2888 197 1575 197 
Q 975 197 628 716 
Q 450 984 384 1363 
L 909 1363 
z
M 1591 4494 
Q 834 4494 834 3431 
Q 834 3038 969 2778 
Q 1169 2394 1591 2394 
Q 1859 2394 2069 2631 
Q 2338 2938 2338 3431 
Q 2338 3925 2125 4213 
Q 1922 4494 1591 4494 
z
" transform="scale(0.015625)"/>
     </defs>
     <use xlink:href="#IPAGothic-dc"/>
     <use xlink:href="#IPAGothic-df" transform="translate(50 0)"/>
    </g>
   </g>
   <g id="text_26">
    <!-- 100 -->
    <g transform="translate(107.684005 42.434984) scale(0.075 -0.075)">
     <use xlink:href="#IPAGothic-d7"/>
     <use xlink:href="#IPAGothic-d6" transform="translate(50 0)"/>
     <use xlink:href="#IPAGothic-d6" transform="translate(100 0)"/>
    </g>
   </g>
   <g id="text_27">
    <!-- 100 -->
    <g transform="translate(172.618477 42.875533) scale(0.075 -0.075)">
     <use xlink:href="#IPAGothic-d7"/>
     <use xlink:href="#IPAGothic-d6" transform="translate(50 0)"/>
     <use xlink:href="#IPAGothic-d6" transform="translate(100 0)"/>
    </g>
   </g>
   <g id="text_28">
    <!-- 100 -->
    <g transform="translate(237.55295 42.875533) scale(0.075 -0.075)">
     <use xlink:href="#IPAGothic-d7"/>
     <use xlink:href="#IPAGothic-d6" transform="translate(50 0)"/>
     <use xlink:href="#IPAGothic-d6" transform="translate(100 0)"/>
    </g>
   </g>
   <g id="text_29">
    <!-- 100 -->
    <g transform="translate(302.487422 42.434984) scale(0.075 -0.075)">
     <use xlink:href="#IPAGothic-d7"/>
     <use xlink:href="#IPAGothic-d6" transform="translate(50 0)"/>
     <use xlink:href="#IPAGothic-d6" transform="translate(100 0)"/>
    </g>
   </g>
   <g id="text_30">
    <!-- 100 -->
    <g transform="translate(367.421894 42.434984) scale(0.075 -0.075)">
     <use xlink:href="#IPAGothic-d7"/>
     <use xlink:href="#IPAGothic-d6" transform="translate(50 0)"/>
     <use xlink:href="#IPAGothic-d6" transform="translate(100 0)"/>
    </g>
   </g>
   <g id="text_31">
    <!-- 100 -->
    <g transform="translate(432.356367 42.434984) scale(0.075 -0.075)">
     <use xlink:href="#IPAGothic-d7"/>
     <use xlink:href="#IPAGothic-d6" transform="translate(50 0)"/>
     <use xlink:href="#IPAGothic-d6" transform="translate(100 0)"/>
    </g>
   </g>
   <g id="text_32">
    <!-- 100 -->
    <g transform="translate(497.290839 42.875533) scale(0.075 -0.075)">
     <use xlink:href="#IPAGothic-d7"/>
     <use xlink:href="#IPAGothic-d6" transform="translate(50 0)"/>
     <use xlink:href="#IPAGothic-d6" transform="translate(100 0)"/>
    </g>
   </g>
   <g id="text_33">
    <!-- 100 -->
    <g transform="translate(562.225312 42.434984) scale(0.075 -0.075)">
     <use xlink:href="#IPAGothic-d7"/>
     <use xlink:href="#IPAGothic-d6" transform="translate(50 0)"/>
     <use xlink:href="#IPAGothic-d6" transform="translate(100 0)"/>
    </g>
   </g>
   <g id="text_34">
    <!-- 98 -->
    <g transform="translate(629.034784 44.931432) scale(0.075 -0.075)">
     <use xlink:href="#IPAGothic-df"/>
     <use xlink:href="#IPAGothic-de" transform="translate(50 0)"/>
    </g>
   </g>
   <g id="text_35">
    <!-- 図面PDF：項目別の正解率（開発用 300枚） -->
    <g transform="translate(243.06 21.358594) scale(0.12 -0.12)">
     <defs>
      <path id="IPAGothic-f6" d="M 447 4806 
L 1569 4806 
Q 2122 4806 2466 4550 
Q 2919 4200 2919 3544 
Q 2919 2753 2278 2409 
Q 1975 2244 1581 2244 
L 959 2244 
L 959 325 
L 447 325 
L 447 4806 
z
M 959 4319 
L 959 2731 
L 1528 2731 
Q 2394 2731 2394 3538 
Q 2394 4009 2009 4209 
Q 1803 4319 1528 4319 
L 959 4319 
z
" transform="scale(0.015625)"/>
      <path id="IPAGothic-ea" d="M 172 325 
L 172 800 
L 538 800 
L 538 4331 
L 172 4331 
L 172 4806 
L 1331 4806 
Q 2094 4806 2503 4275 
Q 2906 3753 2906 2638 
Q 2906 1481 2534 941 
Q 2113 325 1363 325 
L 172 325 
z
M 1050 4331 
L 1050 800 
L 1344 800 
Q 2381 800 2381 2638 
Q 2381 3550 2084 3963 
Q 1822 4331 1306 4331 
L 1050 4331 
z
" transform="scale(0.015625)"/>
      <path id="IPAGothic-ec" d="M 447 4806 
L 2700 4806 
L 2700 4306 
L 972 4306 
L 972 2894 
L 2469 2894 
L 2469 2406 
L 972 2406 
L 972 325 
L 447 325 
L 447 4806 
z
" transform="scale(0.015625)"/>
      <path id="IPAGothic-18a" d="M 2822 3366 
L 3578 3366 
L 3578 2609 
L 2822 2609 
L 2822 3366 
z
M 2822 1081 
L 3578 1081 
L 3578 325 
L 2822 325 
L 2822 1081 
z
" transform="scale(0.015625)"/>
      <path id="IPAGothic-df3" d="M 5266 4819 
L 5266 -384 
L 4791 -384 
L 4791 38 
L 1600 38 
L 1600 -384 
L 1125 -384 
L 1125 4819 
L 5266 4819 
z
M 1600 4416 
L 1600 3384 
L 4791 3384 
L 4791 4416 
L 1600 4416 
z
M 1600 2988 
L 1600 1966 
L 4791 1966 
L 4791 2988 
L 1600 2988 
z
M 1600 1563 
L 1600 447 
L 4791 447 
L 4791 1563 
L 1600 1563 
z
" transform="scale(0.015625)"/>
      <path id="IPAGothic-d27" d="M 1922 2963 
Q 1906 2453 1894 2209 
L 3341 2209 
Q 3313 550 3175 63 
Q 3059 -366 2413 -366 
Q 2072 -366 1753 -313 
L 1691 134 
Q 2084 63 2413 63 
Q 2694 63 2759 319 
Q 2856 722 2888 1753 
Q 2888 1800 2894 1819 
L 1863 1819 
Q 1709 350 700 -481 
L 353 -147 
Q 1075 403 1306 1256 
Q 1450 1822 1478 2963 
L 700 2963 
L 700 4984 
L 3278 4984 
L 3278 2963 
L 1922 2963 
z
M 1141 4588 
L 1141 3353 
L 2838 3353 
L 2838 4588 
L 1141 4588 
z
M 3972 4594 
L 4425 4594 
L 4425 1159 
L 3972 1159 
L 3972 4594 
z
M 5309 5044 
L 5763 5044 
L 5763 191 
Q 5763 -141 5581 -263 
Q 5438 -359 5116 -359 
Q 4688 -359 4253 -313 
L 4156 178 
Q 4625 116 5072 116 
Q 5309 116 5309 353 
L 5309 5044 
z
" transform="scale(0.015625)"/>
      <path id="IPAGothic-282" d="M 3119 469 
Q 5275 766 5275 2425 
Q 5275 3453 4413 3922 
Q 4041 4113 3547 4159 
Q 3394 2525 2850 1400 
Q 2322 306 1722 306 
Q 1384 306 1084 666 
Q 609 1244 609 2003 
Q 609 3025 1397 3794 
Q 2184 4563 3431 4563 
Q 4306 4563 4928 4122 
Q 5813 3506 5813 2425 
Q 5813 438 3431 6 
L 3119 469 
z
M 3053 4147 
Q 2378 4044 1891 3641 
Q 1097 2981 1097 1991 
Q 1097 1366 1434 978 
Q 1581 813 1719 813 
Q 2022 813 2416 1625 
Q 2909 2638 3053 4147 
z
" transform="scale(0.015625)"/>
      <path id="IPAGothic-964" d="M 3547 409 
L 5916 409 
L 5916 -31 
L 481 -31 
L 481 409 
L 1441 409 
L 1441 3231 
L 1934 3231 
L 1934 409 
L 3059 409 
L 3059 4288 
L 750 4288 
L 750 4728 
L 5659 4728 
L 5659 4288 
L 3547 4288 
L 3547 2669 
L 5353 2669 
L 5353 2241 
L 3547 2241 
L 3547 409 
z
" transform="scale(0.015625)"/>
      <path id="IPAGothic-47d" d="M 4538 2222 
L 4538 2906 
L 4953 2906 
L 4953 2222 
L 5850 2222 
L 5850 1850 
L 4953 1850 
L 4953 1159 
L 6072 1159 
L 6072 775 
L 4953 775 
L 4953 -447 
L 4538 -447 
L 4538 775 
L 3303 775 
L 3303 1159 
L 4538 1159 
L 4538 1850 
L 3897 1850 
Q 3781 1528 3622 1269 
L 3303 1544 
Q 3600 2072 3706 2734 
L 4103 2663 
Q 4053 2413 4006 2222 
L 4538 2222 
z
M 2394 3803 
L 3141 3803 
L 3141 63 
Q 3141 -213 3006 -306 
Q 2900 -384 2622 -384 
Q 2250 -384 1919 -341 
L 1853 103 
Q 2278 31 2547 31 
Q 2744 31 2744 213 
L 2744 1319 
L 1241 1319 
Q 1191 303 722 -513 
L 394 -178 
Q 863 566 863 1869 
L 863 3181 
Q 738 2997 516 2741 
L 281 3091 
Q 1106 4053 1363 5319 
L 1797 5238 
Q 1747 5044 1719 4959 
L 1700 4891 
L 2653 4891 
L 2853 4684 
Q 2653 4238 2394 3803 
z
M 1809 3450 
L 1259 3450 
L 1259 2747 
L 1809 2747 
L 1809 3450 
z
M 2175 3450 
L 2175 2747 
L 2744 2747 
L 2744 3450 
L 2175 3450 
z
M 1809 2406 
L 1259 2406 
L 1259 1672 
L 1809 1672 
L 1809 2406 
z
M 2175 2406 
L 2175 1672 
L 2744 1672 
L 2744 2406 
L 2175 2406 
z
M 1969 3803 
Q 2172 4141 2322 4531 
L 1572 4531 
Q 1409 4100 1247 3803 
L 1969 3803 
z
M 4622 4594 
Q 4534 3469 3597 2897 
L 3297 3225 
Q 4088 3625 4194 4594 
L 3316 4594 
L 3316 4978 
L 5844 4978 
Q 5813 3791 5734 3422 
Q 5688 3194 5556 3103 
Q 5444 3031 5184 3031 
Q 4863 3031 4556 3078 
L 4500 3475 
Q 4819 3422 5044 3422 
Q 5266 3422 5313 3600 
Q 5372 3831 5403 4594 
L 4622 4594 
z
" transform="scale(0.015625)"/>
      <path id="IPAGothic-e7b" d="M 3022 2847 
Q 3334 3231 3681 3744 
L 4053 3525 
Q 3503 2766 2919 2181 
L 3266 2200 
Q 3575 2209 3822 2234 
Q 3728 2406 3572 2616 
L 3909 2772 
Q 4241 2350 4538 1766 
L 4153 1547 
Q 4078 1756 3994 1913 
L 3853 1894 
Q 3706 1875 3413 1850 
L 3413 1228 
L 6078 1228 
L 6078 819 
L 3413 819 
L 3413 -447 
L 2938 -447 
L 2938 819 
L 319 819 
L 319 1228 
L 2938 1228 
L 2938 1803 
L 2881 1797 
Q 2303 1759 2028 1747 
L 1900 2163 
Q 2316 2163 2413 2169 
Q 2519 2269 2772 2553 
Q 2344 3028 1913 3347 
L 2181 3653 
L 2444 3425 
Q 2681 3744 2869 4128 
L 544 4128 
L 544 4525 
L 2938 4525 
L 2938 5313 
L 3413 5313 
L 3413 4525 
L 5847 4525 
L 5847 4128 
L 2969 4128 
L 3278 3981 
Q 2988 3509 2694 3188 
Q 2850 3041 3022 2847 
z
M 1497 2822 
Q 1125 3263 691 3566 
L 997 3847 
Q 1406 3588 1828 3156 
L 1497 2822 
z
M 4216 3078 
Q 4791 3478 5144 3897 
L 5534 3616 
Q 5075 3178 4491 2803 
L 4216 3078 
z
M 5553 1631 
Q 4994 2109 4369 2444 
L 4659 2741 
Q 5353 2381 5894 1984 
L 5553 1631 
z
M 538 1925 
Q 1306 2297 1881 2803 
L 2072 2456 
Q 1619 2034 813 1528 
L 538 1925 
z
" transform="scale(0.015625)"/>
      <path id="IPAGothic-1ad" d="M 5419 -434 
Q 4197 769 4197 2441 
Q 4197 4097 5419 5300 
L 5919 5300 
Q 4678 4078 4678 2425 
Q 4678 788 5919 -434 
L 5419 -434 
z
" transform="scale(0.015625)"/>
      <path id="IPAGothic-494" d="M 2913 5013 
L 2913 3097 
L 1063 3097 
L 1063 -447 
L 609 -447 
L 609 5013 
L 2913 5013 
z
M 1063 4653 
L 1063 4225 
L 2491 4225 
L 2491 4653 
L 1063 4653 
z
M 1063 3900 
L 1063 3444 
L 2491 3444 
L 2491 3900 
L 1063 3900 
z
M 5781 5013 
L 5781 78 
Q 5781 -231 5647 -325 
Q 5538 -409 5238 -409 
Q 4809 -409 4488 -366 
L 4425 103 
Q 4791 38 5122 38 
Q 5328 38 5328 238 
L 5328 3097 
L 3438 3097 
L 3438 5013 
L 5781 5013 
z
M 3853 4653 
L 3853 4225 
L 5328 4225 
L 5328 4653 
L 3853 4653 
z
M 3853 3900 
L 3853 3444 
L 5328 3444 
L 5328 3900 
L 3853 3900 
z
M 4028 2266 
L 4028 1556 
L 5000 1556 
L 5000 1184 
L 4047 1184 
L 4047 -159 
L 3625 -159 
L 3625 1184 
L 2809 1184 
Q 2731 156 1850 -313 
L 1550 13 
Q 2319 347 2388 1184 
L 1403 1184 
L 1403 1556 
L 2394 1556 
L 2394 2266 
L 1594 2266 
L 1594 2619 
L 4800 2619 
L 4800 2266 
L 4028 2266 
z
M 3606 1556 
L 3606 2266 
L 2816 2266 
L 2816 1556 
L 3606 1556 
z
" transform="scale(0.015625)"/>
      <path id="IPAGothic-c4e" d="M 4719 3638 
Q 5159 4016 5453 4391 
L 5831 4122 
Q 5409 3700 5038 3413 
Q 5500 3116 6106 2856 
L 5800 2456 
Q 5231 2738 4706 3113 
L 4706 2772 
L 4106 2772 
L 4106 1919 
L 5756 1919 
L 5756 1522 
L 4106 1522 
L 4106 359 
Q 4106 159 4206 131 
Q 4313 94 4681 94 
Q 5256 94 5353 191 
Q 5444 284 5472 766 
Q 5472 863 5481 900 
L 5928 741 
Q 5900 25 5741 -141 
Q 5572 -341 4647 -341 
Q 4084 -341 3900 -256 
Q 3653 -150 3653 213 
L 3653 1522 
L 2728 1522 
Q 2572 34 713 -475 
L 469 -63 
Q 2128 347 2272 1522 
L 644 1522 
L 644 1919 
L 2294 1919 
L 2294 2772 
L 1781 2772 
L 1781 3009 
Q 1266 2647 584 2316 
L 291 2700 
Q 1047 2991 1666 3444 
Q 1269 3850 866 4134 
L 1191 4425 
Q 1700 4003 1991 3713 
Q 2438 4100 2766 4616 
L 1288 4616 
L 1288 5006 
L 3459 5006 
Q 3728 4566 4028 4244 
Q 4425 4584 4738 4988 
L 5109 4719 
Q 4747 4328 4297 3981 
Q 4506 3781 4719 3638 
z
M 3653 2772 
L 2741 2772 
L 2741 1919 
L 3653 1919 
L 3653 2772 
z
M 1978 3156 
L 4641 3156 
Q 3759 3794 3241 4544 
Q 2769 3769 1978 3156 
z
" transform="scale(0.015625)"/>
      <path id="IPAGothic-e46" d="M 5553 4891 
L 5553 203 
Q 5553 -53 5456 -169 
Q 5328 -316 4941 -316 
Q 4547 -316 4191 -275 
L 4113 203 
Q 4516 131 4875 131 
Q 5106 131 5106 372 
L 5106 1625 
L 3441 1625 
L 3441 -103 
L 3000 -103 
L 3000 1625 
L 1469 1625 
Q 1441 231 816 -488 
L 459 -134 
Q 1022 466 1022 1831 
L 1022 4891 
L 5553 4891 
z
M 1475 4500 
L 1475 3469 
L 3000 3469 
L 3000 4500 
L 1475 4500 
z
M 1475 3084 
L 1475 2009 
L 3000 2009 
L 3000 3084 
L 1475 3084 
z
M 5106 2009 
L 5106 3084 
L 3441 3084 
L 3441 2009 
L 5106 2009 
z
M 5106 3469 
L 5106 4500 
L 3441 4500 
L 3441 3469 
L 5106 3469 
z
" transform="scale(0.015625)"/>
      <path id="IPAGothic-c6" transform="scale(0.015625)"/>
      <path id="IPAGothic-da0" d="M 1369 2669 
Q 1063 1622 550 781 
L 269 1250 
Q 956 2253 1306 3541 
L 403 3541 
L 403 3956 
L 1369 3956 
L 1369 5300 
L 1816 5300 
L 1816 3956 
L 2706 3956 
L 2706 3541 
L 1816 3541 
L 1816 2825 
Q 2331 2369 2738 1909 
L 2456 1459 
Q 2109 1959 1816 2313 
L 1816 -447 
L 1369 -447 
L 1369 2669 
z
M 3269 2906 
Q 3066 2497 2800 2144 
L 2481 2500 
Q 3222 3509 3481 5284 
L 3959 5191 
Q 3863 4641 3750 4191 
L 5931 4191 
L 5931 3775 
L 5350 3775 
Q 5253 2334 4613 1247 
Q 5209 566 6072 94 
L 5747 -372 
Q 4944 128 4350 838 
Q 3700 -13 2841 -488 
L 2494 -72 
Q 3438 344 4056 1228 
Q 3516 2028 3269 2906 
z
M 3525 3494 
Q 3803 2375 4313 1644 
Q 4781 2528 4888 3775 
L 3622 3775 
Q 3569 3628 3525 3494 
z
" transform="scale(0.015625)"/>
      <path id="IPAGothic-1ae" d="M 481 -434 
Q 1722 788 1722 2434 
Q 1722 4069 481 5300 
L 981 5300 
Q 2203 4097 2203 2434 
Q 2203 769 981 -434 
L 481 -434 
z
" transform="scale(0.015625)"/>
     </defs>
     <use xlink:href="#IPAGothic-92f"/>
     <use xlink:href="#IPAGothic-de3" transform="translate(100 0)"/>
     <use xlink:href="#IPAGothic-f6" transform="translate(200 0)"/>
     <use xlink:href="#IPAGothic-ea" transform="translate(250 0)"/>
     <use xlink:href="#IPAGothic-ec" transform="translate(300 0)"/>
     <use xlink:href="#IPAGothic-18a" transform="translate(350 0)"/>
     <use xlink:href="#IPAGothic-6fd" transform="translate(450 0)"/>
     <use xlink:href="#IPAGothic-df3" transform="translate(550 0)"/>
     <use xlink:href="#IPAGothic-d27" transform="translate(650 0)"/>
     <use xlink:href="#IPAGothic-282" transform="translate(750 0)"/>
     <use xlink:href="#IPAGothic-964" transform="translate(850 0)"/>
     <use xlink:href="#IPAGothic-47d" transform="translate(950 0)"/>
     <use xlink:href="#IPAGothic-e7b" transform="translate(1050 0)"/>
     <use xlink:href="#IPAGothic-1ad" transform="translate(1150 0)"/>
     <use xlink:href="#IPAGothic-494" transform="translate(1250 0)"/>
     <use xlink:href="#IPAGothic-c4e" transform="translate(1350 0)"/>
     <use xlink:href="#IPAGothic-e46" transform="translate(1450 0)"/>
     <use xlink:href="#IPAGothic-c6" transform="translate(1550 0)"/>
     <use xlink:href="#IPAGothic-d9" transform="translate(1600 0)"/>
     <use xlink:href="#IPAGothic-d6" transform="translate(1650 0)"/>
     <use xlink:href="#IPAGothic-d6" transform="translate(1700 0)"/>
     <use xlink:href="#IPAGothic-da0" transform="translate(1750 0)"/>
     <use xlink:href="#IPAGothic-1ae" transform="translate(1850 0)"/>
    </g>
   </g>
   <g id="legend_1">
    <g id="patch_23">
     <path d="M 189.635 226.69611 
L 206.635 226.69611 
L 206.635 220.74611 
L 189.635 220.74611 
z
" style="fill: #9aa8b6"/>
    </g>
    <g id="text_36">
     <!-- 素朴な方法（テキストの正規表現） -->
     <g transform="translate(213.435 226.69611) scale(0.085 -0.085)">
      <defs>
       <path id="IPAGothic-9d4" d="M 3419 1172 
L 3419 -447 
L 2931 -447 
L 2931 1147 
L 2553 1125 
Q 1878 1094 538 1063 
L 397 1497 
Q 1191 1497 2178 1509 
L 2350 1516 
Q 1784 2013 1353 2316 
L 1678 2584 
Q 2009 2350 2191 2206 
Q 2484 2456 2803 2841 
L 347 2841 
L 347 3213 
L 2944 3213 
L 2944 3603 
L 956 3603 
L 956 3956 
L 2944 3956 
L 2944 4313 
L 666 4313 
L 666 4678 
L 2944 4678 
L 2944 5313 
L 3413 5313 
L 3413 4678 
L 5728 4678 
L 5728 4313 
L 3413 4313 
L 3413 3956 
L 5441 3956 
L 5441 3603 
L 3413 3603 
L 3413 3213 
L 6050 3213 
L 6050 2841 
L 2931 2841 
L 3234 2656 
Q 2900 2316 2472 1966 
Q 2666 1803 2938 1544 
Q 3659 2134 4175 2669 
L 4591 2444 
Q 4066 1922 3541 1550 
Q 3719 1550 3809 1556 
L 4666 1588 
L 4781 1594 
L 5056 1606 
Q 4819 1822 4578 1997 
L 4916 2247 
Q 5531 1794 6056 1241 
L 5697 941 
Q 5506 1163 5378 1294 
Q 5319 1294 5275 1288 
Q 4719 1238 3663 1178 
L 3419 1172 
z
M 500 -13 
Q 1347 356 1947 966 
L 2375 750 
Q 1775 81 884 -384 
L 500 -13 
z
M 5581 -256 
Q 4844 369 4084 769 
L 4463 1044 
Q 5219 669 5991 109 
L 5581 -256 
z
" transform="scale(0.015625)"/>
       <path id="IPAGothic-d8a" d="M 1716 2703 
Q 1322 1613 684 738 
L 378 1153 
Q 1225 2194 1631 3534 
L 513 3534 
L 513 3950 
L 1716 3950 
L 1716 5241 
L 2184 5241 
L 2184 3950 
L 3328 3950 
L 3328 3534 
L 2184 3534 
L 2184 2972 
Q 2897 2425 3463 1831 
L 3138 1416 
Q 2706 1959 2253 2400 
L 2184 2466 
L 2184 -447 
L 1716 -447 
L 1716 2703 
z
M 4334 3334 
L 4403 3297 
Q 5191 2822 6088 2138 
L 5769 1703 
Q 5106 2309 4334 2850 
L 4334 -447 
L 3853 -447 
L 3853 5178 
L 4334 5178 
L 4334 3334 
z
" transform="scale(0.015625)"/>
       <path id="IPAGothic-27e" d="M 3931 3150 
L 4397 3150 
L 4444 1275 
Q 4472 1266 4541 1238 
Q 4569 1228 4694 1178 
Q 5269 959 5922 603 
L 5641 194 
Q 5056 559 4463 816 
L 4456 725 
Q 4456 234 4303 34 
Q 4103 -222 3503 -222 
Q 2859 -222 2466 103 
Q 2203 328 2203 650 
Q 2203 1003 2528 1244 
Q 2881 1488 3406 1488 
Q 3638 1488 3969 1416 
L 3931 3150 
z
M 3975 988 
Q 3628 1084 3366 1084 
Q 3088 1084 2900 981 
Q 2663 859 2663 656 
Q 2663 472 2894 328 
Q 3119 200 3456 200 
Q 3991 200 3981 672 
L 3975 988 
z
M 794 3928 
Q 1106 3909 1331 3909 
Q 1713 3909 1997 3938 
Q 2144 4381 2294 5125 
L 2784 5050 
Q 2684 4559 2516 3988 
Q 2969 4031 3559 4172 
L 3578 3713 
Q 2919 3575 2375 3531 
Q 1853 2028 1044 831 
L 603 1113 
Q 1325 2063 1856 3488 
Q 1416 3469 1091 3469 
Q 956 3469 822 3475 
L 794 3928 
z
M 5538 2759 
Q 5000 3353 4263 3853 
L 4591 4191 
Q 5338 3728 5897 3128 
L 5538 2759 
z
" transform="scale(0.015625)"/>
       <path id="IPAGothic-d58" d="M 2931 3750 
L 2925 3616 
Q 2916 3203 2875 2778 
L 5244 2778 
Q 5175 781 5000 156 
Q 4913 -144 4691 -247 
Q 4528 -325 4194 -325 
Q 3763 -325 3259 -263 
L 3144 269 
Q 3700 156 4141 156 
Q 4491 156 4556 463 
Q 4725 1197 4744 2350 
L 2822 2350 
Q 2822 2313 2816 2288 
Q 2538 428 916 -484 
L 563 -94 
Q 1859 491 2247 1869 
Q 2422 2488 2450 3750 
L 409 3750 
L 409 4178 
L 2931 4178 
L 2931 5178 
L 3431 5178 
L 3431 4178 
L 5984 4178 
L 5984 3750 
L 2931 3750 
z
" transform="scale(0.015625)"/>
       <path id="IPAGothic-d5a" d="M 3853 2175 
L 3847 2144 
Q 3500 1134 3109 384 
L 3078 331 
Q 3666 372 4444 466 
L 5025 538 
Q 4722 1003 4341 1478 
L 4719 1688 
Q 5372 928 5978 -78 
L 5575 -384 
Q 5356 13 5244 184 
Q 3903 -53 2003 -219 
L 1869 256 
Q 2147 266 2581 294 
Q 3125 1406 3366 2175 
L 1838 2175 
L 1838 2578 
L 3628 2578 
L 3628 3738 
L 2203 3738 
L 2203 4147 
L 3628 4147 
L 3628 5216 
L 4097 5216 
L 4097 4147 
L 5653 4147 
L 5653 3738 
L 4097 3738 
L 4097 2578 
L 6016 2578 
L 6016 2175 
L 3853 2175 
z
M 372 6 
Q 981 797 1472 1913 
L 1806 1550 
Q 1294 378 750 -403 
L 372 6 
z
M 1409 2394 
Q 931 2928 469 3231 
L 775 3597 
Q 1275 3259 1747 2778 
L 1409 2394 
z
M 1613 3847 
Q 1188 4338 691 4703 
L 1000 5056 
Q 1503 4709 1934 4238 
L 1613 3847 
z
" transform="scale(0.015625)"/>
       <path id="IPAGothic-2cd" d="M 563 3072 
L 5741 3072 
L 5741 2613 
L 3578 2613 
Q 3541 1516 3134 872 
Q 2688 156 1663 -256 
L 1313 156 
Q 2334 538 2713 1166 
Q 3003 1644 3034 2613 
L 563 2613 
L 563 3072 
z
M 1406 4588 
L 4941 4588 
L 4941 4128 
L 1406 4128 
L 1406 4588 
z
" transform="scale(0.015625)"/>
       <path id="IPAGothic-2b4" d="M 2919 5056 
L 3169 3834 
L 3534 3897 
L 3828 3944 
L 4297 4025 
L 4591 4078 
L 4916 4134 
L 5000 3688 
L 3253 3397 
L 3475 2284 
Q 4219 2406 4872 2522 
L 5238 2584 
L 5634 2656 
L 5722 2194 
L 3566 1844 
L 3969 -147 
L 3475 -263 
L 3072 1759 
L 834 1388 
L 744 1856 
L 1213 1925 
L 1581 1984 
L 2197 2081 
L 2575 2138 
L 2984 2203 
L 2759 3322 
L 1019 3034 
L 941 3488 
Q 1163 3516 2056 3653 
L 2344 3700 
L 2669 3750 
L 2428 4959 
L 2919 5056 
z
" transform="scale(0.015625)"/>
       <path id="IPAGothic-2c0" d="M 4359 4481 
L 4716 4147 
Q 4328 3072 3647 2150 
Q 4659 1434 5659 453 
L 5234 19 
Q 4256 1088 3353 1778 
Q 3316 1722 3291 1697 
Q 3288 1694 3281 1691 
Q 3266 1678 3259 1663 
Q 2284 553 1044 -31 
L 653 403 
Q 3128 1453 4097 4000 
L 1241 3963 
L 1228 4453 
L 4359 4481 
z
" transform="scale(0.015625)"/>
       <path id="IPAGothic-2cf" d="M 2284 4997 
L 2803 4997 
L 2803 3206 
Q 4088 2619 5216 1888 
L 4878 1369 
Q 3816 2178 2803 2688 
L 2803 -184 
L 2284 -184 
L 2284 4997 
z
" transform="scale(0.015625)"/>
       <path id="IPAGothic-551" d="M 4928 1638 
L 4928 331 
Q 4928 172 5013 134 
Q 5063 109 5234 109 
Q 5600 109 5656 300 
Q 5694 444 5716 1031 
L 6131 850 
Q 6081 94 5997 -69 
Q 5888 -278 5600 -306 
Q 5419 -319 5184 -319 
Q 4700 -319 4591 -209 
Q 4500 -122 4500 109 
L 4500 1638 
L 4044 1638 
Q 4016 819 3738 341 
Q 3419 -209 2578 -500 
L 2309 -134 
Q 3094 84 3391 613 
Q 3606 997 3616 1638 
L 2981 1638 
L 2981 5050 
L 5650 5050 
L 5650 1638 
L 4928 1638 
z
M 3397 4666 
L 3397 4038 
L 5228 4038 
L 5228 4666 
L 3397 4666 
z
M 3397 3666 
L 3397 3047 
L 5228 3047 
L 5228 3666 
L 3397 3666 
z
M 3397 2675 
L 3397 2022 
L 5228 2022 
L 5228 2675 
L 3397 2675 
z
M 1369 4109 
L 1369 5216 
L 1797 5216 
L 1797 4109 
L 2644 4109 
L 2644 3713 
L 1797 3713 
L 1797 2747 
L 2731 2747 
L 2731 2350 
L 1797 2350 
Q 1788 2128 1759 1850 
Q 1772 1844 1797 1819 
Q 2372 1419 2897 847 
L 2600 463 
Q 2184 1003 1681 1434 
Q 1431 419 619 -222 
L 294 122 
Q 1316 828 1363 2350 
L 319 2350 
L 319 2747 
L 1369 2747 
L 1369 3713 
L 453 3713 
L 453 4109 
L 1369 4109 
z
" transform="scale(0.015625)"/>
       <path id="IPAGothic-67c" d="M 4788 1638 
L 4788 313 
Q 4788 153 4866 113 
Q 4941 81 5203 81 
Q 5522 81 5581 266 
Q 5625 400 5644 1009 
L 6081 831 
Q 6041 38 5919 -141 
Q 5769 -359 5116 -359 
Q 4566 -359 4444 -219 
Q 4347 -122 4347 97 
L 4347 1638 
L 3847 1638 
Q 3819 794 3469 313 
Q 3134 -144 2331 -441 
L 2028 -56 
Q 2841 184 3134 622 
Q 3378 981 3419 1638 
L 2791 1638 
L 2791 5050 
L 5588 5050 
L 5588 1638 
L 4788 1638 
z
M 3219 4666 
L 3219 4044 
L 5159 4044 
L 5159 4666 
L 3219 4666 
z
M 3219 3666 
L 3219 3047 
L 5159 3047 
L 5159 3666 
L 3219 3666 
z
M 3219 2675 
L 3219 2022 
L 5159 2022 
L 5159 2675 
L 3219 2675 
z
M 1631 4391 
L 1631 3028 
L 2363 3028 
L 2363 2631 
L 1631 2631 
L 1631 1166 
Q 2131 1316 2553 1459 
L 2584 1063 
Q 1584 675 425 359 
L 256 806 
Q 669 897 1203 1044 
L 1203 2631 
L 463 2631 
L 463 3028 
L 1203 3028 
L 1203 4391 
L 384 4391 
L 384 4794 
L 2516 4794 
L 2516 4391 
L 1631 4391 
z
" transform="scale(0.015625)"/>
      </defs>
      <use xlink:href="#IPAGothic-9d4"/>
      <use xlink:href="#IPAGothic-d8a" transform="translate(100 0)"/>
      <use xlink:href="#IPAGothic-27e" transform="translate(200 0)"/>
      <use xlink:href="#IPAGothic-d58" transform="translate(300 0)"/>
      <use xlink:href="#IPAGothic-d5a" transform="translate(400 0)"/>
      <use xlink:href="#IPAGothic-1ad" transform="translate(500 0)"/>
      <use xlink:href="#IPAGothic-2cd" transform="translate(600 0)"/>
      <use xlink:href="#IPAGothic-2b4" transform="translate(700 0)"/>
      <use xlink:href="#IPAGothic-2c0" transform="translate(800 0)"/>
      <use xlink:href="#IPAGothic-2cf" transform="translate(900 0)"/>
      <use xlink:href="#IPAGothic-282" transform="translate(1000 0)"/>
      <use xlink:href="#IPAGothic-964" transform="translate(1100 0)"/>
      <use xlink:href="#IPAGothic-551" transform="translate(1200 0)"/>
      <use xlink:href="#IPAGothic-cba" transform="translate(1300 0)"/>
      <use xlink:href="#IPAGothic-67c" transform="translate(1400 0)"/>
      <use xlink:href="#IPAGothic-1ae" transform="translate(1500 0)"/>
     </g>
    </g>
    <g id="patch_24">
     <path d="M 366.435 226.69611 
L 383.435 226.69611 
L 383.435 220.74611 
L 366.435 220.74611 
z
" style="fill: #1f6aa5"/>
    </g>
    <g id="text_37">
     <!-- PdfConditionReader（LLM＋ルール） -->
     <g transform="translate(390.235 226.69611) scale(0.085 -0.085)">
      <defs>
       <path id="IPAGothic-109" d="M 2250 4806 
L 2725 4806 
L 2725 325 
L 2378 325 
L 2256 722 
Q 1931 197 1406 197 
Q 922 197 625 666 
Q 325 1122 325 1881 
Q 325 2503 550 2931 
Q 847 3488 1400 3488 
Q 1859 3488 2250 3022 
L 2250 4806 
z
M 1516 3034 
Q 1184 3034 991 2675 
Q 825 2350 825 1875 
Q 825 1359 978 1041 
Q 1159 650 1516 650 
Q 1838 650 2050 972 
Q 2269 1294 2269 1875 
Q 2269 2347 2103 2650 
Q 1900 3034 1516 3034 
z
" transform="scale(0.015625)"/>
       <path id="IPAGothic-10b" d="M 1288 3366 
L 1288 4159 
Q 1288 4806 1947 4806 
L 2638 4806 
L 2638 4359 
L 2038 4359 
Q 1775 4359 1775 4122 
L 1775 3366 
L 2638 3366 
L 2638 2919 
L 1775 2919 
L 1775 325 
L 1288 325 
L 1288 2919 
L 513 2919 
L 513 3366 
L 1288 3366 
z
" transform="scale(0.015625)"/>
       <path id="IPAGothic-e9" d="M 2891 1819 
Q 2750 200 1625 200 
Q 966 200 606 884 
Q 294 1484 294 2559 
Q 294 3656 641 4300 
Q 984 4934 1625 4934 
Q 2653 4934 2853 3525 
L 2328 3525 
Q 2194 4453 1625 4453 
Q 844 4453 844 2559 
Q 844 681 1631 681 
Q 2297 681 2353 1819 
L 2891 1819 
z
" transform="scale(0.015625)"/>
       <path id="IPAGothic-114" d="M 1606 3488 
Q 2194 3488 2528 2969 
Q 2816 2538 2816 1844 
Q 2816 1322 2644 928 
Q 2325 197 1594 197 
Q 1028 197 691 678 
Q 384 1119 384 1844 
Q 384 2625 738 3072 
Q 1075 3488 1606 3488 
z
M 1594 3041 
Q 1250 3041 1056 2681 
Q 884 2366 884 1844 
Q 884 1363 1025 1059 
Q 1219 644 1600 644 
Q 1950 644 2144 1003 
Q 2316 1319 2316 1838 
Q 2316 2378 2138 2688 
Q 1947 3041 1594 3041 
z
" transform="scale(0.015625)"/>
       <path id="IPAGothic-113" d="M 847 3366 
L 919 2975 
Q 1400 3488 1869 3488 
Q 2391 3488 2631 3028 
Q 2766 2769 2766 2400 
L 2766 325 
L 2291 325 
L 2291 2259 
Q 2291 3034 1794 3034 
Q 1456 3034 1206 2791 
Q 944 2528 944 2188 
L 944 325 
L 469 325 
L 469 3366 
L 847 3366 
z
" transform="scale(0.015625)"/>
       <path id="IPAGothic-10e" d="M 1319 4806 
L 1881 4806 
L 1881 4231 
L 1319 4231 
L 1319 4806 
z
M 1350 3366 
L 1850 3366 
L 1850 325 
L 1350 325 
L 1350 3366 
z
" transform="scale(0.015625)"/>
       <path id="IPAGothic-119" d="M 1244 4191 
L 1731 4191 
L 1731 3366 
L 2484 3366 
L 2484 2906 
L 1731 2906 
L 1731 969 
Q 1731 750 1975 750 
Q 2272 750 2528 800 
L 2528 322 
Q 2150 269 1878 269 
Q 1244 269 1244 903 
L 1244 2906 
L 641 2906 
L 641 3366 
L 1244 3366 
L 1244 4191 
z
" transform="scale(0.015625)"/>
       <path id="IPAGothic-f8" d="M 447 4806 
L 1556 4806 
Q 2097 4806 2438 4563 
Q 2872 4244 2872 3641 
Q 2872 2759 2034 2500 
L 2994 325 
L 2406 325 
L 1534 2416 
L 947 2416 
L 947 325 
L 447 325 
L 447 4806 
z
M 947 4331 
L 947 2875 
L 1484 2875 
Q 1766 2875 1975 2991 
Q 2359 3191 2359 3628 
Q 2359 4331 1478 4331 
L 947 4331 
z
" transform="scale(0.015625)"/>
       <path id="IPAGothic-10a" d="M 2816 1269 
Q 2538 200 1606 200 
Q 1028 200 691 681 
Q 384 1122 384 1844 
Q 384 2534 672 2975 
Q 1009 3488 1600 3488 
Q 2753 3488 2828 1747 
L 866 1747 
Q 903 628 1613 628 
Q 2175 628 2316 1269 
L 2816 1269 
z
M 2316 2156 
Q 2213 3059 1600 3059 
Q 1009 3059 884 2156 
L 2316 2156 
z
" transform="scale(0.015625)"/>
       <path id="IPAGothic-106" d="M 444 2478 
Q 569 3491 1603 3491 
Q 2644 3491 2644 2375 
L 2644 847 
Q 2644 666 2809 666 
Q 2866 666 2963 688 
L 2963 238 
Q 2834 206 2656 206 
Q 2234 206 2178 678 
Q 1744 206 1225 206 
Q 884 206 666 384 
Q 378 616 378 1069 
Q 378 2122 2184 2247 
L 2184 2375 
Q 2184 3063 1603 3063 
Q 1003 3063 956 2478 
L 444 2478 
z
M 2184 1844 
Q 847 1778 847 1094 
Q 847 634 1300 634 
Q 1609 634 1903 872 
Q 2184 1094 2184 1422 
L 2184 1844 
z
" transform="scale(0.015625)"/>
       <path id="IPAGothic-117" d="M 1422 3366 
L 1422 2725 
Q 1975 3309 2606 3488 
L 2606 2931 
Q 1881 2756 1422 2144 
L 1422 325 
L 934 325 
L 934 3366 
L 1422 3366 
z
" transform="scale(0.015625)"/>
       <path id="IPAGothic-f2" d="M 447 4806 
L 984 4806 
L 984 838 
L 2872 838 
L 2872 325 
L 447 325 
L 447 4806 
z
" transform="scale(0.015625)"/>
       <path id="IPAGothic-f3" d="M 306 4806 
L 944 4806 
L 1597 1128 
L 2250 4806 
L 2891 4806 
L 2891 325 
L 2456 325 
L 2456 3803 
L 1834 325 
L 1363 325 
L 766 3803 
L 766 325 
L 306 325 
L 306 4806 
z
" transform="scale(0.015625)"/>
       <path id="IPAGothic-1bf" d="M 2972 4659 
L 3431 4659 
L 3431 2663 
L 5397 2663 
L 5397 2203 
L 3431 2203 
L 3431 206 
L 2972 206 
L 2972 2203 
L 1006 2203 
L 1006 2663 
L 2972 2663 
L 2972 4659 
z
" transform="scale(0.015625)"/>
       <path id="IPAGothic-2f2" d="M 353 331 
Q 1313 994 1544 2022 
Q 1684 2650 1684 4397 
L 2203 4397 
L 2203 4153 
L 2203 4116 
Q 2203 2259 1934 1491 
Q 1619 588 744 -38 
L 353 331 
z
M 3125 4666 
L 3650 4666 
L 3650 769 
Q 4875 1488 5672 2731 
L 5997 2278 
Q 5075 966 3516 63 
L 3125 359 
L 3125 4666 
z
" transform="scale(0.015625)"/>
       <path id="IPAGothic-19f" d="M 588 2688 
L 5809 2688 
L 5809 2175 
L 588 2175 
L 588 2688 
z
" transform="scale(0.015625)"/>
      </defs>
      <use xlink:href="#IPAGothic-f6"/>
      <use xlink:href="#IPAGothic-109" transform="translate(50 0)"/>
      <use xlink:href="#IPAGothic-10b" transform="translate(100 0)"/>
      <use xlink:href="#IPAGothic-e9" transform="translate(150 0)"/>
      <use xlink:href="#IPAGothic-114" transform="translate(200 0)"/>
      <use xlink:href="#IPAGothic-113" transform="translate(250 0)"/>
      <use xlink:href="#IPAGothic-109" transform="translate(300 0)"/>
      <use xlink:href="#IPAGothic-10e" transform="translate(350 0)"/>
      <use xlink:href="#IPAGothic-119" transform="translate(400 0)"/>
      <use xlink:href="#IPAGothic-10e" transform="translate(450 0)"/>
      <use xlink:href="#IPAGothic-114" transform="translate(500 0)"/>
      <use xlink:href="#IPAGothic-113" transform="translate(550 0)"/>
      <use xlink:href="#IPAGothic-f8" transform="translate(600 0)"/>
      <use xlink:href="#IPAGothic-10a" transform="translate(650 0)"/>
      <use xlink:href="#IPAGothic-106" transform="translate(700 0)"/>
      <use xlink:href="#IPAGothic-109" transform="translate(750 0)"/>
      <use xlink:href="#IPAGothic-10a" transform="translate(800 0)"/>
      <use xlink:href="#IPAGothic-117" transform="translate(850 0)"/>
      <use xlink:href="#IPAGothic-1ad" transform="translate(900 0)"/>
      <use xlink:href="#IPAGothic-f2" transform="translate(1000 0)"/>
      <use xlink:href="#IPAGothic-f2" transform="translate(1050 0)"/>
      <use xlink:href="#IPAGothic-f3" transform="translate(1100 0)"/>
      <use xlink:href="#IPAGothic-1bf" transform="translate(1150 0)"/>
      <use xlink:href="#IPAGothic-2f2" transform="translate(1250 0)"/>
      <use xlink:href="#IPAGothic-19f" transform="translate(1350 0)"/>
      <use xlink:href="#IPAGothic-2f2" transform="translate(1450 0)"/>
      <use xlink:href="#IPAGothic-1ae" transform="translate(1550 0)"/>
     </g>
    </g>
   </g>
  </g>
 </g>
 <defs>
  <clipPath id="pae75d598ad">
   <rect x="46.92" y="27.358594" width="626.28" height="164.471886"/>
  </clipPath>
 </defs>
</svg>
